<?xml version="1.0" encoding="UTF-8"?>
<svg id="Layer_1" xmlns="http://www.w3.org/2000/svg" version="1.1" viewBox="0 0 500 500">
  <!-- Generator: Adobe Illustrator 29.4.0, SVG Export Plug-In . SVG Version: 2.1.0 Build 152)  -->
  <path d="M406.76,386.47c-6.07-13.65-18.96-24.35-30.77-33.01-4.03-3.22-8.15-5.65-13.13-8.5l-14.78-8.55c-3.87-2.32-8.59-4.69-13.16-6.97l-18.67-9.33c-5.71-2.86-11.83-5.26-17.71-6.94l-7.83-2.13-3.49,5.59c-3.27,4.9-35.43,35.38-63.94,61.64l-.68.63-.67-.63c-28.51-26.26-60.68-56.74-63.93-61.61l-3.51-5.62-7.83,2.14c-4.95,1.41-10.17,3.55-16.93,6.93l-14,7-5.39,3.08-4.72,2.36-16.26,8.52c-2.42,1.61-4.74,3.13-6.97,4.58-4.16,2.72-8.09,5.29-11.63,7.81-12.85,9.43-24.88,19.05-30.76,33.02-5.39,12.32-5.35,26.34-4.59,38.43v41.28c0,14.7,11.52,26.22,26.22,26.22h322.73c14.7,0,26.22-11.52,26.22-26.22,0-11.17.44-25.53.66-32.43.07-2.25.11-3.74.11-4.12v-3.89c.76-12.11.8-26.19-4.59-39.28ZM337.85,424.57l-.07.14c-2.75,4.58-6.23,7.52-10.65,8.99-1.79.59-3.67.89-5.62.89-2.68,0-5.48-.56-8.29-1.69l-.14-.07c-4.58-2.74-7.52-6.23-8.99-10.65-3.14-9.41,1.88-19.51,11.44-23.01,1.75-.86,3.47-.86,5.84-.86,2.95,0,6.64,1.12,8.09,1.61l.2.09c4.57,2.74,7.51,6.23,8.99,10.65,1.41,4.25,1.14,9.06-.8,13.91ZM393.94,420.6c-.02,1.44-.03,2.9-.03,4.37v42c0,5.42-4.55,8.77-8.78,8.77H62.41c-5.01,0-9.56-4.18-9.56-8.77v-42c0-1.55-.01-3.11-.03-4.68-.1-9.44-.19-19.21,3.25-26.09,4.75-10.31,15.13-18.29,25.17-26.01,4.69-3.91,11.04-7.88,17.19-11.72l8.31-4.62.2,1.44c.77,5.33,2.31,10.74,4.6,16.08l.4.94-.95.38c-2.73,1.09-5.09,3.02-7.39,4.89-.82.67-1.62,1.33-2.43,1.94-4.2,4.2-7,7.94-9.1,12.13-4.4,8.8-5.42,18.52-3.03,28.88l9.1,37.92,27.04-6.01c5.08-1.46,7.62-5.65,6.25-10.42-1.47-5.13-5.66-7.67-10.43-6.31l-10.34,2.59-4.9-20.42c-1.54-5.38-.92-11.92,1.63-17.02l.07-.1c.33-.5.66-1.04,1-1.58,1.25-2.02,2.67-4.3,4.63-5.64,3.54-3.52,7.63-5.68,12.14-6.44,5.33-.88,9.3-.65,13.7.82,2.4.8,4.01,1.6,5.57,2.38l.14.07.13.12c.27.28.55.42.9.59.44.22.93.47,1.43.97,5.07,4.22,8.06,9.14,8.84,14.56l4.88,20.32-10.3,2.57c-2.4.69-4.37,2.08-5.51,3.93-1.17,1.89-1.44,4.14-.77,6.49.7,2.44,2.1,4.41,3.94,5.55,1.9,1.17,4.14,1.43,6.49.76l27.06-6.01-9.09-37.9c-2.25-9.73-7.48-18.12-15.13-24.27-.87-.46-1.5-1.09-2.1-1.69-.54-.55-1.06-1.06-1.69-1.37l-.15-.1c-3.2-2.4-6.19-3.78-9.71-4.48l-.12-.03c-3.51-1.18-8.99-2.39-15.09-1.52l-.83.12-.26-.79c-2.57-7.7-3.98-13.81-4.71-20.43v-.11s-.01-1.77-.01-1.77h1.54c2.24-1.13,4.34-2.27,6.37-3.38,2.11-1.15,4.29-2.34,6.64-3.52,2-.8,3.77-1.59,5.48-2.35,1.73-.77,3.52-1.56,5.48-2.35l.63-.25.47.49c11.9,12.52,40.79,39.5,58.05,55.61,4.21,3.93,7.79,7.27,10.35,9.67l5.53,5.54,5.52-5.51c3.03-2.86,7.5-6.99,12.68-11.77,17.65-16.3,44.34-40.95,55.71-53.52l.51-.56.68.34c1.21.6,2.57,1.09,4.01,1.61,2.13.77,4.55,1.65,6.95,3.09,2.25,1.12,4.41,2.1,6.5,3.05,2.12.96,4.3,1.96,6.65,3.13l14.7,7.35-.17.77c-2.71,11.74-6.05,21.48-10.19,29.77l-.33.65-.71-.1c-6.11-.88-11.58.34-15.09,1.51-9.52,3.17-16.76,9.33-20.41,17.35-4.23,9.32-5.05,19-2.29,27.27,4.41,14.72,18.41,24.98,34.04,24.98,3.06,0,6.55-.5,10.65-1.53,9.44-3.15,16.68-9.31,20.33-17.33,4.23-9.32,5.05-19,2.29-27.26-2.49-7.48-6.45-13.17-12.09-17.41l-.64-.48.33-.73c3.7-8.15,6.82-17.25,9.27-27.05l.33-1.31,1.15.7c3.19,1.91,6.33,4.3,9.11,6.41.64.5,1.27.97,1.87,1.42,10.03,7.72,20.39,15.69,25.17,26,4.19,7.03,4.11,16.45,4.03,26.42Z" fill="#153259"/>
  <path d="M313.18,171.59l-.59-.27v-3.75c0-1.75.24-3.26.44-4.61.17-1.11.34-2.16.34-3.17l.03-.26c2.24-8.2,3.04-15.73,3.86-24.71.77-27.69-13.25-50.6-37.51-61.21l-.15-.08c-1.77-1.18-4.07-1.9-6.1-2.54-.5-.16-.99-.31-1.44-.46-15.33-5.64-30.91-8.5-46.35-8.5h-10.11l-2,.16c-9.24.75-21.9,1.77-32.57,6.74-.7.35-1.24.71-1.81,1.1-.59.39-1.19.79-1.99,1.2-4.52,3.01-8.33,6.83-11.34,11.35l-1.56,2.33c-1.59,2.4-1.62,2.43-3.23,4.04-1.66,1.66-3.3,2.57-4.89,3.45-.78.44-1.52.85-2.26,1.34l-.16.09c-4.96,2.13-8.83,5.73-11.17,10.42-3.32,5.32-5.19,12.61-6.12,23.74-.61,7.31-.35,16.14.78,26.25v.11c0,3.22.56,5.91,1.2,9.03l.36,1.85c0,.68.19,1.62.37,2.53.2,1,.41,2.04.41,2.92v.87l-.87.12c-11.12,1.48-16.2,11.14-15.47,19.92v.09s.01,7.77.01,7.77c0,1.49.18,2.98.38,4.54.19,1.56.39,3.18.39,4.79,0,.66.18,1.36.36,2.09.2.81.41,1.64.42,2.52,1.54,13.7,8.24,24.17,18.89,29.49l.41.21.11.45c6.19,24.76,18.53,43.14,37.7,56.18,2.26,1.51,4.6,3.07,7.66,4.6,3.76,2.25,7.52,3.8,13.05,5.38l.1.03c3.82,1.53,6.82,2.28,10.71,3.06,3.04.76,6,.76,9.13.76h2.34c3.13,0,6.09,0,9.09-.75,3.93-.79,6.93-1.54,10.75-3.07l.18-.07h.81c4.49-1.5,9.11-3.05,12.87-5.3,1.15-.78,2.55-1.57,3.9-2.35,1.33-.75,2.7-1.54,3.84-2.29,9.26-6.42,17.81-15.23,25.39-26.18,3.25-4.88,5.61-10.63,7.66-16.12l2.32-6.96c.21-.63.37-1.27.51-1.89.4-1.67.78-3.25,2.17-4.05l4.56-4.56c.29-.28.62-.54.98-.81.71-.55,1.51-1.16,1.95-2.04l.08-.17.14-.12c7.76-7.06,9.59-15.46,11.06-22.2l.28-1.28c.01-.86.22-1.68.42-2.47.18-.73.35-1.43.35-2.09l.04-.24c.74-2.99.74-5.95.74-9.09v-7c.8-8.78-4.08-17.33-11.85-20.86ZM306.81,199.45c0,1.16-.17,2.29-.36,3.48-.2,1.33-.41,2.71-.41,4.3,0,.9-.22,1.75-.42,2.57-.19.74-.36,1.44-.36,2.09v.13c-.78,6.16-2.28,9.56-5.74,13.02l-2.33,2.34c-.8.8-1.6,1.51-2.38,2.2-1.56,1.38-3.03,2.7-4.53,4.69-3.57,4.29-4.41,8.52-5.15,12.26l-.09.46c-.03,1.76-.85,3.41-1.71,4.35l-.39.91c-2.13,5-3.68,8.61-6.64,12.33-5.75,9.03-12.17,15.96-19.61,21.19-.86.83-1.87,1.44-2.85,2.03-.95.56-1.84,1.1-2.53,1.79l-.12.12-.14.07c-3.08,1.54-6.26,3.13-10.19,4.7l-.18.07h-.19c-.17,0-.29-.01-.38.01l-.64.64-7.22,2.41c-2.48.83-4.94.83-7.31.83s-4.84,0-6.6-.85c-.71-.23-1.42-.39-2.17-.56-1.62-.36-3.3-.73-5.01-1.87l-.15-.13-.63-.63c-1.1-.44-2.14-.88-3.13-1.3-2.45-1.04-4.56-1.94-6.66-2.47l-.17-.04-.15-.1c-1.14-.76-2.12-1.35-3.07-1.92-.96-.57-1.96-1.17-3.15-1.97-15.3-10.47-25.38-25.85-29.97-45.71-1.45-5.8-4.34-8.77-6.53-10.24l-1.49-.75c-7.82-4.34-9.89-12.87-9.89-17.23,0-.65-.17-1.35-.36-2.09-.2-.82-.42-1.67-.42-2.57,0-1.01-.16-2.06-.33-3.18-.21-1.34-.44-2.86-.44-4.6v-7.3c.22-4.88,4.65-6.14,4.65-6.14l1.34-.68c3.63-2.18,5.67-5.74,5.67-9.99,0-5.35-.78-10.81-1.53-16.1-.4-1.23-.6-2.63-.79-3.98-.2-1.35-.38-2.63-.74-3.71l-.04-.21c-.79-7.05-.79-15.77-.79-24.21,0-6.47,1.24-11.42,4.03-16.07l.15-.19c.78-.79,1.67-1.67,3.37-2.52,3.19-1.28,5.86-3.09,9.25-5.38.73-.5,1.5-1.02,2.31-1.56,2.28-1.83,3.78-3.75,5.1-5.45.83-1.06,1.61-2.07,2.52-2.98l1.49-1.49c1.63-2.41,4.03-4.8,6.44-6.41l.26-.17h.3s.03-.05.07-.09c.21-.21.58-.58,1.21-.67,8.06-3.97,17.9-4.73,27.42-5.46h9.4c14.06,0,27.52,2.38,40.02,7.06,2.29.77,4.7,1.57,7.12,3.17,17.95,7.84,27.78,24.04,26.96,44.47,0,7.07-1.59,14.24-3.13,21.17-.75,3.76-1.53,7.66-1.53,10.67l-.02.2-.78,3.89c-1.15,4.6-1.16,8.32-.05,11.09,2.05,4.1,5.52,6.4,10.88,7.16,0,0,2.17.25,1.63,4.22v6.88Z" fill="#153259"/>
  <path d="M465.01,62.58v183.49l-30.95-30.22c-1.84-1.83-3.69-3.78-5.49-5.66-3.46-3.63-6.74-7.07-9.77-9.65v-.72l-.3-.3c-2.46-2.46-6.59-4.18-10.04-4.18h-62.21c-5.11,0-9.11-3.66-9.11-8.33,0-5.11,3.66-9.11,8.33-9.11h62.22c8.02,0,16.18,3.38,21.84,9.04l1.62,1.62c4.63,3.85,10.13,9.35,15.49,14.71l1.71,1.71V63.36c0-13.2-6.08-22.05-11.18-27.15-7-7-17.15-11.18-27.15-11.18h-135.31c-9.18,0-17,2.6-23.9,7.95-3.99,2.41-7.23,5.65-9.6,9.61-1.33,1.99-3.35,3.29-5.68,3.65-2.21.34-4.42-.22-6.08-1.55l-.18-.11c-1.9-.95-3.33-2.73-3.9-4.88-.62-2.33-.19-4.84,1.21-6.95,2.85-4.98,7.2-9.58,12.96-13.7,9.89-7.6,21.46-11.46,34.39-11.46h135.31c13.58,0,28.15,6.01,38.99,16.08,5.05,4.54,16.78,17.42,16.78,38.91Z" fill="#dc1b1a"/>
</svg>