<?xml version="1.0" encoding="UTF-8"?>
<svg id="Capa_1" xmlns="http://www.w3.org/2000/svg" version="1.1" viewBox="0 0 512 512">
  <!-- Generator: Adobe Illustrator 29.4.0, SVG Export Plug-In . SVG Version: 2.1.0 Build 152)  -->
  <g id="Page-1">
    <g id="_x30_34---Heart-Disease">
      <g id="Shape">
        <path d="M163.65,192.83c-24.35,8.13-40.45,35.01-43.06,71.89-.27,3.87-3.53,6.9-7.41,6.9h-.56c-4.08-.28-7.17-3.84-6.89-7.91,3.06-43.1,22.94-74.86,53.19-84.96l.32-.14c3.8-1.1,7.85,1,9.12,4.8,1.3,3.89-.81,8.12-4.71,9.42Z" fill="#153259"/>
      </g>
      <g id="Shape1" data-name="Shape">
        <path d="M425.39,101.41l-.04-.02c-8.96-4.71-18.38-8.69-28.01-11.81-72.72-23.87-125.63,6.84-157.22,36.79l-1.57,1.49.32-2.14c2.99-20.55,4.36-41.5,4.08-62.27v-27.34c0-15.99-24.32-24.36-48.34-24.36s-48.35,8.37-48.35,24.38c0,5.33.07,10.24.15,14.99l.02,1.36c.13,8.39.26,16.32-.14,22.33-.5,7.39-3.19,32.21-16.94,41.59-26.49,17.9-41.2,48.79-38.39,80.63l.02.22-.1.2c-10.39,19.64-16.54,41.75-17.78,63.94-4.71,89.34,44.5,171.79,125.39,210.04,19.78,10.3,40.71,18.46,62.21,24.26,11.97,3.19,24.33,4.87,36.72,5.01,15.28.37,30.45-3.41,43.81-10.88,18.15-10.54,32.06-28.68,42.53-55.44,11.56-29.42,19.05-60.27,22.27-91.71,1.9-18.51,2.03-37.29.39-55.81v-.69c-2.34-28.96-10.51-56.69-24.28-82.34-8.47-16.68-21.26-30.8-37.02-40.84l-1.87-1.2,2.21-.18c20.86-1.76,37.52,2.99,48.54,6.13,4.92,1.4,8.8,2.51,11.26,2.51,11.52,0,23.26-10.79,29.22-26.85,6.92-18.78,3.1-36.44-9.09-41.99ZM161.13,36.18l.05-.14c1.37-3.29,14.06-9.43,33.43-9.43s31.47,6.05,33.29,9.14l.22.37-.22.38c-1.77,3.09-13.71,9.16-33.29,9.16s-32.11-6.35-33.4-8.88l-.08-.16v-.44ZM108.08,171.82c3.94-17.76,14.47-33.07,29.65-43.1,18.68-12.76,22.59-41.24,23.4-52.89.39-5.87.33-12.73.22-20.45l-.02-1.12,1.04.41c10.31,4.04,21.16,6.02,32.22,5.85,11.18.18,22.1-1.81,32.47-5.93l1.02-.4v9.28c.97,27.94-2.07,55.86-9.02,82.96l-.21.81-.78-.29c-7.31-2.71-14.96-4.46-22.72-5.2-15.92-1.34-31.64.67-46.71,5.99-14.83,4.98-28.41,13.54-39.29,24.77l-1.84,1.9.57-2.59ZM392.63,306.46l.02,1.81c.17,10.93-.3,22-1.38,32.89-3.09,30.1-10.29,59.63-21.38,87.77-4.59,11.75-9.85,21.55-15.85,29.51-6,7.97-12.75,14.1-20.33,18.51-10.14,5.9-22.29,8.86-36.32,8.86-10.06,0-21.09-1.52-33.03-4.56-20.49-5.55-40.41-13.34-59.22-23.15-39.38-19.02-71.4-49.32-92.58-87.62l-.16-.29.11-.32c6.45-18.08,18.49-41.78,39.24-52.06,15.46-6.86,33.27-7.13,48.89-.74l2.19.74c72,24.52,134.19,45.7,188.54-10.06l1.26-1.29ZM385.71,149.16l.09,1.02-.99-.22c-37.56-8.14-61.01-.91-74.07,6.58l-1.12.65v-.06c-4.62,2.64-8.69,6.06-12.1,10.17-1.62,2.23-1.86,5.18-.6,7.68,1.25,2.5,3.77,4.07,6.57,4.09h.01c2.3,0,4.45-1.03,5.89-2.84,2.13-2.27,4.51-4.19,7.12-5.77l.16-.1h.19c26.12-1.28,45.27,28.02,52.28,40.66,12.33,23.05,19.77,47.92,22.12,73.94l.03.3-.19.23c-25.14,31.66-51.6,42.84-81.36,42.84-30.02.01-63.39-11.37-102.18-24.59l-2.23-.77c-19.37-7.72-41.3-7.16-60.22,1.53-18.27,10.26-32.78,26.62-40.79,46.06l-.69,1.66-.69-1.66c-11.61-27.68-16.81-58.15-15.03-88.11,1.1-20.13,6.38-39.4,15.68-57.28l.13-.18c.86-.87,1.48-1.94,1.82-3.11l.07-.16c10.48-18.69,27.4-32.87,47.65-39.91,13.08-4.65,26.73-6.43,40.56-5.3,9.05.85,17.77,3.28,25.94,7.22,42.82,20.77,59.43,77.28,59.59,77.84.55,1.91,1.8,3.5,3.54,4.46,1.73.96,3.74,1.19,5.65.65,3.94-1.13,6.23-5.25,5.1-9.19-.63-2.28-16.07-55.95-58.75-82.36l-.73-.45.54-.66c11.09-13.6,29.81-32.45,55.96-44.99,31.89-15.29,66.23-17.08,102.04-5.33,1.9.61,3.81,1.36,5.67,2.08.68.26,1.37.53,2.05.79l1.08.41-.82.82c-10.9,10.92-16.36,26-14.97,41.36ZM420.53,138.25l-1.45,3.93v-.5c-3.44,7.29-8.06,11.52-11.28,12.99-.96.44-1.83.66-2.59.66-.4,0-.76-.06-1.08-.18-1.59-.58-2.95-3.05-3.55-6.43-.76-5.8-.03-11.71,2.1-17.12,4.29-11.65,11.68-17.09,15.32-17.09.34-.01.72.05,1.07.17,3.56,1.36,5.95,11.45,1.46,23.57Z" fill="#153259"/>
      </g>
      <g id="Shape2" data-name="Shape">
        <path d="M178.24,338.58c-9.66,0-18.29,5.77-21.98,14.69-3.7,8.93-1.68,19.11,5.15,25.94,6.84,6.83,17.01,8.85,25.94,5.15,8.92-3.69,14.69-12.32,14.69-21.98,0-13.12-10.68-23.8-23.8-23.8ZM178.24,371.31c-4.92,0-8.93-4.01-8.93-8.93s4.01-8.93,8.93-8.93,8.93,4,8.93,8.93-4,8.93-8.93,8.93Z" fill="#dc1b1a"/>
      </g>
      <g id="Oval">
        <path d="M234.77,386.93c0,4.09-3.34,7.43-7.44,7.43s-7.43-3.34-7.43-7.43,3.34-7.44,7.43-7.44,7.44,3.34,7.44,7.44Z" fill="#dc1b1a"/>
      </g>
      <g id="Oval1" data-name="Oval">
        <path d="M316.59,452.38c0,4.1-3.33,7.44-7.43,7.44s-7.43-3.34-7.43-7.44,3.33-7.43,7.43-7.43,7.43,3.34,7.43,7.43Z" fill="#dc1b1a"/>
      </g>
      <g id="Oval2" data-name="Oval">
        <circle cx="309.16" cy="370.56" r="7.43" fill="#dc1b1a"/>
      </g>
      <g id="Oval3" data-name="Oval">
        <path d="M275.68,444.2c0,4.1-3.34,7.43-7.43,7.43s-7.44-3.33-7.44-7.43,3.34-7.43,7.44-7.43,7.43,3.33,7.43,7.43Z" fill="#dc1b1a"/>
      </g>
      <g id="Oval4" data-name="Oval">
        <path d="M275.68,403.29c0,4.1-3.34,7.43-7.43,7.43s-7.44-3.33-7.44-7.43,3.34-7.43,7.44-7.43,7.43,3.33,7.43,7.43Z" fill="#dc1b1a"/>
      </g>
      <g id="Oval5" data-name="Oval">
        <path d="M275.68,370.56c0,4.1-3.34,7.43-7.43,7.43s-7.44-3.33-7.44-7.43,3.34-7.43,7.44-7.43,7.43,3.33,7.43,7.43Z" fill="#dc1b1a"/>
      </g>
      <g id="Oval6" data-name="Oval">
        <path d="M242.95,419.66c0,4.09-3.33,7.43-7.43,7.43s-7.44-3.34-7.44-7.43,3.34-7.44,7.44-7.44,7.43,3.34,7.43,7.44Z" fill="#dc1b1a"/>
      </g>
      <g id="Oval7" data-name="Oval">
        <path d="M202.04,411.47c0,4.1-3.34,7.44-7.43,7.44s-7.44-3.34-7.44-7.44,3.34-7.43,7.44-7.43,7.43,3.34,7.43,7.43Z" fill="#dc1b1a"/>
      </g>
      <g id="Oval8" data-name="Oval">
        <circle cx="358.25" cy="370.56" r="7.43" fill="#dc1b1a"/>
      </g>
      <g id="Shape3" data-name="Shape">
        <path d="M325.52,387.68c-13.12,0-23.79,10.67-23.79,23.79s10.67,23.8,23.79,23.8,23.8-10.68,23.8-23.8-10.68-23.79-23.8-23.79ZM325.52,420.41c-4.92,0-8.93-4.01-8.93-8.94s4.01-8.93,8.93-8.93,8.93,4.01,8.93,8.93-4,8.94-8.93,8.94Z" fill="#dc1b1a"/>
      </g>
    </g>
  </g>
</svg>