<?xml version="1.0" encoding="UTF-8"?>
<svg id="Capa_1" xmlns="http://www.w3.org/2000/svg" version="1.1" viewBox="0 0 500 500">
  <!-- Generator: Adobe Illustrator 29.4.0, SVG Export Plug-In . SVG Version: 2.1.0 Build 152)  -->
  <g id="Page-1">
    <g id="_x30_38---Heart-Pressure">
      <path id="Shape" d="M282.73,449.01c-16.87,20.56-49.88,42.57-141.41-3.34-72.76-34.25-117.6-109.09-113.48-189.4,1.05-19.28,6.2-38.12,15.1-55.25.98-.97,1.68-2.19,2.04-3.52,10.09-17.95,26.4-31.59,45.85-38.34,12.52-4.46,25.86-6.21,39.11-5.11,8.66.81,17.1,3.16,24.93,6.95,41.25,20,57.36,74.61,57.53,75.16,1.31,4.08,5.63,6.38,9.75,5.2s6.57-5.41,5.53-9.57c-.68-2.38-16.05-54.8-57.35-80.4,20.39-25.01,72.96-74.81,152.7-48.65,2.48.79,4.97,1.83,7.46,2.77-10.71,10.73-16.11,25.66-14.74,40.76-36.02-7.81-58.92-1.28-72.29,6.36-.13.06-.23.14-.35.2-4.93,2.66-9.31,6.24-12.89,10.55-1.76,2.41-2.02,5.6-.68,8.26,1.34,2.66,4.06,4.35,7.04,4.37,2.46,0,4.78-1.12,6.3-3.04,1.99-2.12,4.26-3.96,6.76-5.45,13.08-.64,27.16,7.44,39.6,23.14,2.79,3.22,7.61,3.67,10.95,1.03s4-7.44,1.5-10.89c-6.7-8.73-14.99-16.1-24.43-21.74,17.53-.81,35.07,1.61,51.72,7.15l.1.06c2.06.65,4.2,1.03,6.36,1.14,11.34,0,23.05-10.33,29.05-26.56,3.03-7.79,3.99-16.23,2.76-24.5-.96-7.5-5.56-14.05-12.3-17.49-8.69-4.43-17.7-8.18-26.96-11.22-72.24-23.68-124.3,8.25-153.41,35.92,2.92-20.07,4.25-40.33,3.97-60.61v-26.56c0-16.01-24.01-24.39-47.69-24.39s-47.69,8.39-47.69,24.41c0,5.7.08,11.01.15,15.9.14,8.51.25,15.9-.14,21.64-.47,7.08-3.01,30.9-16.13,39.84-25.93,17.51-40.33,47.7-37.63,78.87-10.24,19.33-16.18,40.64-17.39,62.48-4.58,86.72,43.69,167.6,122.19,204.74,37.91,19.01,69.95,28.52,96.54,28.52,24.85.92,48.67-9.94,64.27-29.31,1.82-2.19,2.32-5.19,1.33-7.86-1-2.67-3.35-4.6-6.16-5.06s-5.65.61-7.45,2.82v.03ZM349.59,135.35c-4.33,11.75-12.06,17.11-14.98,16.02-1.3-.48-2.47-2.71-3-5.7-.73-5.49-.03-11.08,2.01-16.22,1.79-5.24,4.89-9.93,9.01-13.63,1.44-1.36,3.26-2.24,5.22-2.51.27,0,.54.03.79.12,1.28.48,2.46,2.72,2.99,5.71.71,5.49,0,11.07-2.05,16.22ZM130.82,27.88c19.19,0,30.21,5.95,31.71,8.51-1.48,2.57-12.52,8.52-31.71,8.52s-30.81-6.28-31.8-8.24v-.08c.99-2.44,12.07-8.71,31.8-8.71ZM75.93,126.94c18.54-12.64,22.26-40.54,23.05-51.94.37-5.67.32-12.35.21-19.93,10.06,3.95,20.79,5.89,31.6,5.73,10.88.17,21.68-1.8,31.8-5.81v7.95c.93,27.08-2.01,54.15-8.74,80.39-7.2-2.66-14.71-4.38-22.34-5.11-15.47-1.3-31.04.7-45.68,5.85-14.54,4.89-27.7,13.18-38.39,24.19,3.8-16.94,14.01-31.76,28.5-41.33Z" fill="#153259"/>
      <path id="Shape1" data-name="Shape" d="M95.9,174.26c-29.68,9.91-49.18,41-52.16,83.16-.31,4.38,2.99,8.18,7.37,8.49h.56c4.18.01,7.65-3.22,7.95-7.38,2.51-35.53,17.97-61.4,41.33-69.21,2.7-.9,4.71-3.17,5.28-5.95s-.39-5.66-2.52-7.55-5.1-2.5-7.8-1.6l-.02.05Z" fill="#153259"/>
      <path id="Shape2" data-name="Shape" d="M361.29,194.37c-62.47-.03-115.71,45.33-125.59,107.01s26.5,121.41,85.85,140.91v14.4c0,17.56,14.24,31.8,31.8,31.8h15.9c17.56,0,31.8-14.24,31.8-31.8v-14.4c59.35-19.5,95.74-79.22,85.85-140.91-9.89-61.68-63.12-107.04-125.59-107.01ZM385.14,456.68c0,8.78-7.12,15.9-15.9,15.9h-15.9c-8.78,0-15.9-7.12-15.9-15.9v-10.27c15.75,3.09,31.95,3.09,47.69,0v10.27ZM369.24,432.43v-15.49c0-4.39-3.56-7.95-7.95-7.95s-7.95,3.56-7.95,7.95v15.49c-55.1-4-98.93-47.83-102.93-102.93h15.49c4.39,0,7.95-3.56,7.95-7.95s-3.56-7.95-7.95-7.95h-15.49c4-55.1,47.83-98.93,102.93-102.93v15.49c0,4.39,3.56,7.95,7.95,7.95s7.95-3.56,7.95-7.95v-15.49c55.1,4,98.93,47.83,102.93,102.93h-15.49c-4.39,0-7.95,3.56-7.95,7.95s3.56,7.95,7.95,7.95h15.49c-4,55.1-47.83,98.93-102.93,102.93Z" fill="#dc1b1a"/>
      <path id="Shape3" data-name="Shape" d="M419.26,252.34l-41.92,41.92c-4.85-2.92-10.39-4.48-16.05-4.51-17.56,0-31.8,14.24-31.8,31.8s14.24,31.8,31.8,31.8,31.8-14.24,31.8-31.8c-.03-5.66-1.58-11.2-4.51-16.05l41.92-41.92c3.01-3.12,2.97-8.08-.1-11.14s-8.02-3.11-11.14-.1h0ZM361.29,337.45c-7.2,0-13.5-4.82-15.36-11.77-1.87-6.95,1.17-14.29,7.4-17.89,6.23-3.6,14.1-2.57,19.19,2.52,4.55,4.54,5.91,11.38,3.46,17.32s-8.25,9.82-14.68,9.82h0Z" fill="#dc1b1a"/>
    </g>
  </g>
</svg>