<?xml version="1.0" encoding="UTF-8"?>
<svg id="Capa_1" xmlns="http://www.w3.org/2000/svg" version="1.1" viewBox="0 0 500 500">
  <!-- Generator: Adobe Illustrator 29.4.0, SVG Export Plug-In . SVG Version: 2.1.0 Build 152)  -->
  <path d="M348.17,212.03c-4.34-17.59-11.06-33.75-20.06-48.26-11.2-18.06-26.4-33.72-43.94-45.3l-1.78-1.17,1.74-1.23c8.55-6.04,18.68-9.23,29.31-9.23,4.53,0,8.22-3.69,8.22-8.22v-43.26c0-4.52-3.69-8.22-8.22-8.22h-4.96c-30.57,0-59.58,11.61-81.7,32.68l-2.45,2.33V12.11c0-4.54-3.68-8.22-8.22-8.22h-43.25c-4.54,0-8.22,3.68-8.22,8.22v70.04l-2.46-2.33c-22.1-21.07-51.11-32.68-81.69-32.68h-4.96c-4.53,0-8.22,3.7-8.22,8.22v43.26c0,4.53,3.69,8.22,8.22,8.22,10.5,0,20.53,3.12,29.02,9.03l1.66,1.16-9,6.63c-51.54,37.57-62.35,96.49-62.35,139.3,0,80.18,36.86,165.24,89.63,206.84,29.2,23.02,61.55,31.15,93.52,23.47,36.09-8.86,69.92-38.01,95.37-81.42,3.17-5.41,6.21-11.04,9.11-16.88-.65-.19-1.33-.28-2.02-.28-.64,0-1.3.08-1.94.25l-17.03,4.57c-3.67,6.53-7.56,12.76-11.63,18.65-5.86,8.47-12.09,16.23-18.6,23.12-16.77,17.75-35.53,29.94-54.27,35.24l-.49.13-.47-.2c-10.94-4.68-19.24-13.86-22.76-25.16-3.53-11.32-1.91-23.58,4.42-33.63,3.63-5.74,4.8-12.54,3.31-19.14-1.49-6.61-5.46-12.25-11.21-15.86l-24.94-15.76c-18.82-11.9-24.47-36.93-12.6-55.78,5.78-9.14,14.76-15.49,25.29-17.86,10.54-2.39,21.39-.51,30.55,5.28l1.86,1.17c16.77,10.61,37.1,14.68,57.19,11.7,3.82-.57,7.63-1.38,11.4-2.46,1.29-.37,2.59-.67,3.9-.9.56-5.82,1.67-11.49,3.26-16.95-3.96.28-7.9.97-11.68,2.05-1.52.43-3.05.81-4.58,1.14-17.7,3.83-35.91.84-50.65-8.44-.21-.11-.45-.27-.93-.57-16.98-11.03-33.26-10.47-43.92-8.06-26.13,5.89-44.37,28.68-44.37,55.43,0,19.66,9.91,37.65,26.5,48.14l24.94,15.77c2.01,1.26,3.4,3.23,3.94,5.54.54,2.33.12,4.74-1.17,6.78-13.45,21.36-11.16,49.39,5.56,68.15l2.4,2.7-3.6-.28c-33.98-2.66-67.3-26.99-93.79-68.5-13.48-21.12-24.24-45.51-31.64-70.93-7.39-25.41-11.42-51.85-11.42-77.06,0-55.93,19.24-99.51,55.63-126.05l10.73-7.89.83,1.3c6.19,9.56,8.91,20.68,7.86,32.17l-4.94,54.34c-.4,4.52,2.93,8.52,7.45,8.94,2.18.19,4.31-.47,5.99-1.88,1.7-1.4,2.74-3.39,2.93-5.57l4.95-54.34c3.26-35.81-22.1-67.84-57.74-72.91l-1.23-.18v-27.27l1.5.08c24.43,1.11,47.64,10.95,65.37,27.69,17.77,16.78,28.92,39.47,31.4,63.9.65,6.41,6.01,11.24,12.45,11.24s11.81-4.83,12.46-11.25c2.48-24.39,13.6-47.06,31.32-63.84,17.73-16.77,40.96-26.63,65.44-27.74l1.52-.08v27.27l-1.25.18c-35.63,5.07-60.98,37.1-57.73,72.91l4.94,54.34c.2,2.18,1.24,4.17,2.93,5.57,1.69,1.41,3.82,2.08,6.01,1.88,4.5-.42,7.85-4.42,7.43-8.94l-4.93-54.34c-1.03-11.28,1.6-22.26,7.57-31.73l.78-1.22,1.21.76c30.38,18.75,51.3,49.18,60.37,87.16,1.18,4.92,2.15,9.97,2.92,15.13,5.01-2.39,10.27-4.36,15.72-5.84-.83-5.01-1.84-9.92-3.02-14.72ZM207.9,102.99l-.23.35c-4.94,7.99-8.91,16.52-11.8,25.35l-1.39,4.21-1.37-4.21c-2.9-8.83-6.88-17.37-11.82-25.35l-.21-.35V20.33h26.82v82.66Z" fill="#153259"/>
  <path d="M375.82,208.47c-9.55,0-18.82,1.24-27.65,3.56-5.38,1.42-10.6,3.23-15.62,5.43-31.73,13.79-55.65,42.28-63.1,76.83-1.21,5.56-1.99,11.28-2.3,17.12-.11,1.95-.16,3.91-.16,5.89,0,20.06,5.47,39.55,15.85,56.57l-9.97,37.19c-.69,2.59.05,5.35,1.95,7.25s4.65,2.63,7.24,1.94l7.81-2.09,23.51-6.31,5.87-1.57c17.02,10.38,36.51,15.85,56.57,15.85,60.01,0,108.83-48.82,108.83-108.83s-48.82-108.83-108.83-108.83ZM375.82,411.13c-18.28,0-36-5.26-51.24-15.22-.65-.43-1.36-.74-2.09-.94-.65-.19-1.33-.28-2.02-.28-.64,0-1.3.08-1.94.25l-17.03,4.57-10.78,2.89,7.45-27.81c.56-2.06.21-4.26-.96-6.05-9.96-15.24-15.22-32.96-15.22-51.24,0-3.12.15-6.21.46-9.25.56-5.82,1.67-11.49,3.26-16.95,7.52-25.82,25.86-47.08,49.76-58.51,5.01-2.39,10.27-4.36,15.72-5.84,7.85-2.14,16.11-3.28,24.63-3.28,51.74,0,93.83,42.09,93.83,93.83s-42.09,93.83-93.83,93.83Z" fill="#dc1b1a"/>
  <path d="M391.95,333.68l-17.47,25.32c-1.19,1.72-2.98,2.88-5.04,3.26-2.06.39-4.14-.06-5.87-1.25-3.56-2.46-4.47-7.35-2.01-10.92l14.14-20.48-15.71-19.29c-2.19-2.69-2.34-6.55-.37-9.4l17.47-25.32c1.19-1.73,2.98-2.88,5.04-3.26.48-.09.96-.14,1.43-.14,1.58,0,3.12.48,4.44,1.39,1.73,1.19,2.88,2.98,3.26,5.04.38,2.07-.06,4.14-1.25,5.87l-14.13,20.48,15.71,19.3c2.19,2.69,2.33,6.55.37,9.4Z" fill="#dc1b1a"/>
</svg>