<?xml version="1.0" encoding="UTF-8"?>
<svg id="Capa_1" xmlns="http://www.w3.org/2000/svg" version="1.1" viewBox="0 0 500 500">
  <!-- Generator: Adobe Illustrator 29.4.0, SVG Export Plug-In . SVG Version: 2.1.0 Build 152)  -->
  <path d="M200.49,136.1c.86-31.54,27.62-58.61,39.12-68.69,3.96-3.46,6.35-8.26,6.73-13.5l1.3-17.85c.16-2.26,2.25-4.13,4.43-3.98l19.61,1.97c.24,11.82,9.93,21.37,21.82,21.37s16.89-7.75,19.56-11.48c.52-.73.94-1.31,1.27-1.64,1.63-2.11,3.99-3.42,6.64-3.68,3.28-.29,6.59,1.09,8.04,3.34.62.96,1.13,2.5.09,4.33-3.13,5.51-3.31,12.31-.5,18.33-.12.01,18.68-.23,17.17-.29-.99-2.2-1.98-4.14-2.92-5.75-.91-1.53-.99-3.25-.23-4.59,3.71-6.52,3.48-14.17-.6-20.47-4.72-7.29-13.36-11.27-22.54-10.39-6.89.67-13.26,4.2-17.45,9.65-.72.76-1.35,1.65-1.95,2.51-1.65,2.35-3.21,4.57-6.59,4.57s-6.26-2.81-6.26-6.26c0-8.08-6.07-14.68-14.12-15.36l-19.86-1.67c-10.86-.74-20.34,7.49-21.14,18.37l-1.3,17.85c-.07,1.13-.59,2.16-1.45,2.92-1.19,1.04-2.58,2.3-4.12,3.75l-24.31-16.04c-4.72-3.12-10.57-4.07-16.06-2.61-5.48,1.46-10.08,5.21-12.62,10.27l-8.62,17.18c-.98,1.97-2.79,2.3-3.52,2.35-1.13.06-2.7-.21-3.83-1.83l-.07-.09c-.16-.15-.51-.69-.91-1.32-2.59-4.07-9.45-14.86-23.14-11.87l-17.11,3.71c-6.08,1.32-11.09,5.3-13.74,10.93-2.66,5.62-2.55,12.02.3,17.55l20,38.86c.31.61.47,1.28.47,1.96v57.62c4.43-4.15,7.46-11.19,15.57-21.81v-35.82c0-3.15-.77-6.29-2.21-9.09l-19.99-38.85c-.85-1.64-.41-3.08-.07-3.79.34-.72,1.17-1.97,2.97-2.36l17.11-3.71c.29-.06.59-.09.88-.09,1.41,0,2.76.68,3.62,1.9.31.3.74.98,1.29,1.83,2.63,4.09,8.11,12.59,19.95,11.78,7.07-.5,13.18-4.57,16.35-10.9l8.61-17.17c.76-1.5,2.04-2.03,2.74-2.22.68-.19,2.05-.37,3.46.56l21.87,14.43c-13.16,14.9-28.71,38.13-29.26,65.05l15.52.22ZM202.15,135.95h.02s-.09-.01-.09-.01c.02,0,.05.01.07.01Z" fill="#dc1b1a"/>
  <g>
    <path d="M348.83,214.08l25.04-5.69c6.01-1.34,12,2.44,13.36,8.42,1.36,6-2.42,11.99-8.42,13.36l-19.38,4.39c-1.27-2.52-8.54-16.66-10.6-20.48ZM396.04,305.47c-1.59,2.52-4.07,4.28-6.97,4.93l-3.57.81c-1.3-6.92-3.14-14.8-5.08-21.81l3.69-.84c2.91-.67,5.9-.16,8.42,1.43,2.53,1.59,4.29,4.1,4.96,7.07.66,2.9.14,5.89-1.45,8.42ZM328.6,64.62c-66.48,4.63-90.74,49.99-98.1,69.34-.71,1.81-2.29,2.87-4.04,2.72-6.07-.34-14.8-.6-25.94-.77l-15.56-.04c-.05,0-.11.02-.17.03-7.73,1.15-27.63,6.18-47.15,28.19l-15.56,21.39c-13.92,22.34-22.72,47.18-27.66,64.1-.58,2-.35,4.1.65,5.92,1,1.82,2.65,3.15,4.64,3.73,2,.59,4.1.36,5.92-.63,1.82-1,3.15-2.65,3.73-4.66,8.15-27.92,31.93-93.8,76.7-102.59l3.18.02c8.52.06,24.38.17,36.35.84,8.48.44,16.28-4.63,19.43-12.65,16.21-42.64,56.53-64.15,110.59-59.02,1.57.15,2.52,1.09,2.95,1.64.52.67,1.09,1.79.85,3.36-.17,1.24-.39,3.48-.65,6.08-.64,6.37-1.51,15.08-2.33,17.4-.44,1.24-1.6,2.19-2.96,2.41-2.17.36-4.71.58-7.65.85-15.18,1.35-38.11,3.4-53.17,27.8-4.35,7.61-3.51,16.88,2.08,23.04,14.54,16.99,26.71,34.55,39.42,56.9-.13.48-.2,1.24-.3,2.31-.71,7.68-2.89,31.03-36.84,50.01-9.41-5.66-38.4-26.31-34.92-63.96.19-2.07-.43-4.09-1.76-5.69-1.33-1.6-3.2-2.58-5.26-2.77-2.07-.2-4.09.4-5.68,1.71-1.61,1.33-2.6,3.21-2.79,5.32-3.56,38.52,19.78,62.34,34.47,73.34-15.66,10.02-34.09,31.02-34.5,74.36-.04,4.29,3.42,7.81,7.78,7.85,4.25,0,7.74-3.46,7.78-7.71.37-39.36,14.38-54.24,38.44-66.63,28.14-14.43,39.97-32.98,44.93-46.4,26.28,55.15,34.38,104.84,24.77,151.89-11.47,57.07-40.5,81.43-86.28,72.4-40.95-8.28-118.12-69.04-148.18-104.41-22.46-26.07-33.76-50.6-33.57-72.91.02-2.08-.77-4.04-2.23-5.52-1.46-1.48-3.4-2.31-5.48-2.32h-.06c-4.26,0-7.75,3.46-7.78,7.72-.21,25.4,11.7,52.59,35.4,80.81v68.28c0,10.94,8.89,19.84,19.83,19.85,9.28,0,16.96-.03,26.92-.08,10.87-.05,19.72-8.96,19.72-19.85v-7.18c29.48,21.96,63.4,45.03,92.4,50.88,7.22,1.43,14.14,2.14,20.74,2.14,43.03,0,72.47-30.11,83.84-86.7,4.54-22.24,5.32-45.83,2.32-70.13l4.64-1.05c14.37-3.25,23.41-17.62,20.15-32.03-1.58-6.97-5.76-12.91-11.79-16.71-6.04-3.81-13.21-5.04-20.21-3.46l-4.92,1.12c-2.78-8.14-6.1-16.7-9.86-25.45l16.32-3.7h.06c6.98-1.59,12.91-5.79,16.72-11.84,3.8-6.03,5.02-13.19,3.44-20.15-1.58-6.98-5.79-12.92-11.84-16.73-6.03-3.8-13.19-5.01-20.14-3.43l-29.9,6.79c-13.05-21.32-25.73-37.4-34.09-47.17-1.11-1.22-1.27-3.25-.38-4.81,11.03-17.88,28.99-19.34,42.1-20.4,2.86-.23,5.56-.45,7.83-.83,7-1.1,12.81-5.94,15.16-12.61,1.5-4.29,2.44-13.88,3.12-20.89.22-2.3.42-4.28.58-5.56.8-5.33-.65-10.84-3.99-15.11-3.34-4.29-8.35-7.04-13.75-7.56-3.58-.34-7.18-.57-11.31-.74l-17.17.3ZM141.92,441.99c-2.36,0-4.27-1.92-4.27-4.29v-51.04c10.27,10.49,22.15,21.16,35.34,31.76v19.21c0,2.35-1.9,4.28-4.23,4.29-6.1.03-17.68.09-26.83.08Z" fill="#153259"/>
    <path d="M137.47,272.98h0c-4.11-1.22-8.46,1.11-9.69,5.2-5.57,18.52,3.26,41.42,26.25,68.09,1.36,1.58,3.25,2.53,5.32,2.68.2.01.39.02.58.02,1.86,0,3.64-.66,5.07-1.89,1.58-1.36,2.53-3.25,2.68-5.32.15-2.07-.51-4.08-1.87-5.65-18.75-21.75-26.97-40.73-23.14-53.44,1.24-4.11-1.1-8.46-5.21-9.7Z" fill="#153259"/>
  </g>
</svg>