<?xml version="1.0" encoding="UTF-8"?>
<svg id="Capa_1" xmlns="http://www.w3.org/2000/svg" version="1.1" viewBox="0 0 500 500">
  <!-- Generator: Adobe Illustrator 29.4.0, SVG Export Plug-In . SVG Version: 2.1.0 Build 152)  -->
  <g id="Page-1">
    <g id="_x30_28---Heart-Murmur">
      <path id="Shape" d="M168.04,173.66c-29.74,9.94-49.27,41.09-52.26,83.32-.15,2.11.54,4.19,1.93,5.79s3.35,2.58,5.46,2.73h.57c4.19.01,7.67-3.22,7.96-7.4,2.52-35.6,18.01-61.52,41.41-69.34,2.7-.9,4.72-3.17,5.29-5.97s-.39-5.68-2.52-7.57-5.11-2.5-7.81-1.6l-.02.04Z" fill="#153259"/>
      <path id="Shape1" data-name="Shape" d="M439.9,115.65c-.87-7.34-5.32-13.76-11.87-17.16-8.81-4.68-18.01-8.57-27.5-11.63-72.36-23.76-124.54,8.25-153.71,35.97,2.93-20.1,4.26-40.4,3.98-60.71h.01v-26.6c0-16.06-24.06-24.45-47.79-24.45s-47.78,8.4-47.78,24.45c0,5.71.08,11.04.16,15.93.12,8.53.24,15.93-.15,21.68-.47,7.1-3.04,30.98-16.16,39.93-26,17.57-40.43,47.84-37.7,79.1-10.24,19.37-16.17,40.72-17.39,62.6-4.57,86.89,43.82,167.92,122.47,205.1,19.31,10.07,39.65,18.01,60.68,23.67,11.72,3.12,23.78,4.76,35.91,4.9,15.03.35,29.88-3.34,43-10.68,17.83-10.35,31.48-28.14,41.72-54.33,1.62-4.12,3.16-8.27,4.61-12.44,1.92-5.5,3.7-11.05,5.33-16.64-5.69,1.62-11.61,2.7-17.68,3.2-1.64,5.13-3.4,10.22-5.3,15.28-.6,1.6-1.21,3.2-1.84,4.8-8.87,22.7-20.29,37.87-34.9,46.37-16.79,9.76-39.31,11.15-66.95,4.11-19.92-5.4-39.19-12.93-57.48-22.48-72.9-34.33-117.81-109.3-113.68-189.77,1.05-19.35,6.23-38.26,15.19-55.45.92-.93,1.59-2.08,1.95-3.34,10.11-18.03,26.47-31.73,45.99-38.51,12.55-4.47,25.9-6.21,39.17-5.13,8.68.82,17.14,3.18,24.99,6.97,41.33,20.05,57.46,74.75,57.62,75.31.26.8.63,1.53,1.09,2.18,1.9,2.69,5.36,4.01,8.69,3.06,4.14-1.19,6.59-5.45,5.53-9.62-.13-.47-.84-2.9-2.21-6.69-5.56-15.4-22.05-53.32-55.3-73.9,20.44-25.05,73.15-74.94,153-48.74v.03c2.5.8,4.99,1.83,7.48,2.78-5.27,5.2-9.31,11.51-11.82,18.48-2.73,7.11-3.77,14.77-3.03,22.35-36.2-7.82-59.17-1.2-72.54,6.49-5.02,2.67-9.47,6.28-13.12,10.63-1.76,2.41-2.02,5.6-.68,8.27,1.35,2.67,4.07,4.36,7.05,4.38,2.46,0,4.79-1.12,6.32-3.05,1.98-2.11,4.24-3.94,6.72-5.43,19.08-.87,34.35,15.29,43.54,28.48,2.83,4.05,5.08,7.82,6.69,10.73.75,1.35,1.48,2.71,2.17,4.09,6.47.14,12.77.94,18.86,2.34-2.15-4.87-4.5-9.59-7.03-14.16-.42-.83-.85-1.65-1.31-2.47-8.26-15.26-20.28-28.18-34.94-37.53,17.54-.78,35.07,1.68,51.71,7.28,2,.62,4.06.98,6.14,1.08,11.36,0,23.4-10.48,29.34-26.57,3.03-7.8,3.98-16.26,2.75-24.54ZM171.17,35.75c.98-2.46,12.09-8.76,31.85-8.76s30.26,5.96,31.77,8.53c-1.51,2.62-12.54,8.54-31.77,8.54s-30.87-6.29-31.85-8.25v-.06ZM226.12,142.69c-7.18-2.65-14.68-4.37-22.3-5.1-15.5-1.3-31.1.69-45.77,5.86-14.59,4.91-27.8,13.24-38.52,24.29,3.77-17.01,14.01-31.88,28.54-41.49,18.55-12.65,22.3-40.62,23.1-52.03.37-5.68.31-12.38.21-19.97,10.07,3.95,20.82,5.9,31.64,5.74,10.9.17,21.72-1.81,31.86-5.82v7.96c.94,27.14-2.01,54.27-8.76,80.56ZM422.21,134.67c-4.34,11.78-12.13,17.08-15.02,16.06-2.89-1.02-5.34-10.18-.99-21.97,1.8-5.25,4.91-9.95,9.03-13.66,1.44-1.36,3.27-2.24,5.24-2.51.26-.01.51.03.75.12,1.29.48,2.47,2.72,3,5.71.72,5.5.03,11.1-2.02,16.25h.01Z" fill="#153259"/>
    </g>
  </g>
  <path d="M384.9,195.93c-4.15-.49-8.37-.74-12.65-.74-2.26,0-4.51.07-6.73.21-26.07,1.6-49.68,12.42-67.62,29.23-4.37,4.07-8.39,8.51-12.01,13.25-14.1,18.35-22.48,41.29-22.48,66.14,0,20.07,5.47,39.55,15.85,56.58l-9.96,37.18c-.69,2.59.05,5.35,1.94,7.25,1.9,1.89,4.66,2.63,7.25,1.94l37.18-9.96c17.03,10.38,36.51,15.85,56.58,15.85.83,0,1.66-.01,2.49-.04,6.01-.12,11.91-.75,17.65-1.84,50.42-9.46,88.69-53.83,88.69-106.96,0-55.73-42.11-101.81-96.18-108.09ZM397.72,394.34c-5.69,1.62-11.61,2.7-17.68,3.2-2.57.21-5.17.32-7.79.32-18.28,0-36-5.27-51.25-15.23-1.23-.8-2.66-1.22-4.1-1.22-.65,0-1.3.09-1.94.26l-27.81,7.45,7.45-27.81c.55-2.06.2-4.26-.96-6.04-9.96-15.25-15.23-32.97-15.23-51.25,0-51.74,42.1-93.83,93.84-93.83.71,0,1.42.01,2.13.03,6.47.14,12.77.94,18.86,2.34,41.67,9.55,72.84,46.93,72.84,91.46s-28.96,79.2-68.36,90.32Z" fill="#dc1b1a"/>
  <path d="M343,319.5c-5.13,2.71-9.8,6.21-13.46,10.71l-9.41,11.59c-1.45,1.78-1.17,4.4.61,5.84.77.62,1.7.93,2.62.93,1.21,0,2.4-.52,3.23-1.53l9.98-12.29c2.22-2.73,4.99-5.04,8.07-6.74,7.4-4.09,16.51-13.59,19.91-21.33,8.04-18.35,9.42-33.85,4.08-46.11-6.18-14.2-19.11-18.45-19.65-18.63-2.19-.7-4.52.51-5.22,2.7-.7,2.18.51,4.52,2.7,5.22.1.03,9.87,3.24,14.56,14.02.48,1.11.85,2.28,1.19,3.46-9.78-.19-22.53,1.6-27.43,11.4-1.03,2.05-.19,4.55,1.86,5.57.6.3,1.23.44,1.85.44,1.52,0,2.99-.84,3.72-2.3,3.22-6.45,14.6-7.03,21.23-6.77.25,8.74-2.35,19.01-7.91,30.77-2.64,5.57-7.06,10.17-12.51,13.06h0Z" fill="#dc1b1a"/>
  <path d="M334.65,362.65c2.09.91,4.55-.05,5.46-2.15,2.18-5.01,4.92-9.94,7.34-13.41,1.81-2.6,5.78-2.21,7.13.66.45.96.88,1.9,1.24,2.7,3.31,7.3,7.05,15.57,14.26,15.87.06,0,.12,0,.17,0,2.21,0,4.05-1.75,4.15-3.98.1-2.29-1.69-4.23-3.98-4.32-2.09-.09-5.43-7.46-7.03-11-3.11-6.87-6.3-13.97-12.64-12.93-8.01,1.33-15.43,16.61-18.26,23.11-.91,2.1.05,4.55,2.16,5.46h0Z" fill="#dc1b1a"/>
  <path d="M421.14,312.41c.37,0,.74-.05,1.11-.15,2.21-.62,3.5-2.9,2.89-5.11-4.18-15.06-18.98-23.72-27.42-27.53-3.1-1.4-5.25-4.07-5.76-7.14-3.7-22.39-16.64-29.9-17.19-30.21-1.99-1.11-4.48-.42-5.61,1.56-1.14,1.98-.45,4.51,1.51,5.66.41.24,10.09,6.13,13.1,24.34.96,5.81,4.9,10.8,10.53,13.35,7.12,3.22,19.56,10.38,22.84,22.19.51,1.84,2.18,3.04,4,3.04h0Z" fill="#dc1b1a"/>
  <path d="M386.82,303.38h.08c16.26.32,20.76,18.22,20.97,19.1.52,2.23,2.75,3.63,4.98,3.11,2.23-.52,3.63-2.75,3.11-4.98-2.01-8.67-10.63-25.17-28.9-25.53-4.73,0-8.92,2.32-11.35,6.29-5.01,8.18-18.74,36.81,15.03,61.89.74.55,1.61.82,2.47.82,1.27,0,2.52-.58,3.34-1.67,1.37-1.84.98-4.44-.86-5.81-10.34-7.68-15.5-15.52-17.63-22.87,13.08.72,19.91,7.05,20.22,7.36.79.79,1.87,1.2,2.91,1.2s2.16-.42,2.95-1.2c1.62-1.62,1.62-4.24,0-5.9-.44-.4-9.81-9.53-27.28-9.87,0-7.91,3-14.8,5.94-19.6.87-1.42,2.44-2.32,4.03-2.32h0Z" fill="#dc1b1a"/>
</svg>