<?xml version="1.0" encoding="UTF-8"?>
<svg id="Layer_2" xmlns="http://www.w3.org/2000/svg" version="1.1" viewBox="0 0 500 500">
  <!-- Generator: Adobe Illustrator 29.4.0, SVG Export Plug-In . SVG Version: 2.1.0 Build 152)  -->
  <g>
    <path d="M397.31,320.03h0c3.59,0,7.28-2.5,7.41-7.36v-44.19c-.12-4.79-3.82-7.29-7.41-7.29h0c-3.59,0-7.28,2.5-7.41,7.29v.03s0,44.22,0,44.22c.12,4.79,3.82,7.29,7.41,7.29Z" fill="#dc1b1a"/>
    <path d="M397.31,352.62c3.59,0,7.29-2.51,7.41-7.36v-9.48c-.12-4.79-3.82-7.29-7.41-7.29-3.59,0-7.29,2.5-7.41,7.29v.03s0,9.52,0,9.52c.12,4.79,3.82,7.29,7.41,7.29Z" fill="#dc1b1a"/>
    <path d="M362.02,391.13c-18.19,31.24-45.15,57.69-78.33,76.84-6.04-34.07-3.62-70.48-1.27-105.72,3.28-49.33,6.67-100.32-13.55-144.42,25.76-9.74,24.31-27.14,22.9-43.97-.75-8.96-1.52-18.2,1.95-26.33,32.93,11.32,64.15,41.4,80.96,73.16l11.33-10.25c-18.66-33.32-52.19-64.81-87.45-76.93,7.23-28.2,44.63-28.32,82.38-25.97,5.9.52,11.31-1.91,15.67-7.1,10.92-13.85,14.17-44.69,6.8-64.7-4.17-11.33-11.32-18.31-20.69-20.19l-.17-.03c-32.11-4.12-60.28-2.86-86.12,3.86-27.35,7.12-51.41,20.14-73.53,39.8-7.85-.19-15.65.08-23.24.81v-31.51c0-4.09-3.32-7.41-7.41-7.41h-72.03c-4.04,0-7.37,3.29-7.41,7.33l-.69,66.05c-2.06,1.62-4.1,3.31-6.09,5.05-13.56-17.37-26.37-29.17-40.17-37.02l-.15-.08c-7.19-3.48-15.67-2.22-24.52,3.64C22.13,78.68,6.11,108.59,6.84,123.33v.11c.45,4.76,2.56,8.46,6.11,10.72,15.67,9.96,30.14,23.56,44.22,41.55-4.19,14.11-6.42,28.65-6.65,43.26-11.84,46.73,1.9,100.37,38.71,151.06,22.94,31.59,52.9,59.46,86.62,80.59,34.47,21.6,69.77,34.12,102.09,36.2l.63.04.58-.27c41.6-19.25,76.99-53.12,99.81-95.46h-16.94ZM184.84,35.91v26.15c-7.34,1.33-14.57,3.12-21.56,5.35v-31.5h21.56ZM148.46,35.91v37.01c-7.41,3.17-14.59,6.9-21.41,11.11l.5-48.12h20.9ZM353.93,59.94c.19,11.42,3.55,22.55,9.55,31.86-16.79-.21-35.24.63-50.15,6.27-17.9,6.77-27.78,19.19-30.2,37.94-8.25,11.77-7.05,25-5.99,36.7,1.41,15.62,2.45,27.02-16.11,32.2-17.64-24.12-49.62-39.75-88.08-42.97-4.82-.4-9.61-.6-14.38-.6-35.24,0-68.34,10.87-90.26,29.79,5.73-27.6,19.56-52.96,40.31-73.28,30.52-29.89,73.22-45.86,120.29-45.02l1,.02.74-.67c35.83-32.79,79.25-47.08,132.65-43.63-6.26,8.62-9.57,19.58-9.37,31.4ZM146.91,176.82c-7.59,21.07-.29,34.33,6.79,47.18,7.87,14.29,15.31,27.8,2.96,52.63-1.71,2.88-3.78,5.48-5.97,8.24-2.54,3.19-5.16,6.49-7.19,10.27-6.44,11.96-9,24.06-7.6,35.98.48,4.06,4.16,6.97,8.23,6.5,1.97-.23,3.72-1.21,4.95-2.77,1.23-1.55,1.78-3.49,1.55-5.46-1.05-8.96.89-17.86,5.93-27.22,1.79-3.31,4.12-6.24,6.59-9.33,2.19-2.74,4.45-5.58,6.35-8.79,9.38-16.83,10.73-38.38,3.8-55.33,4.16,2.18,6.94,7.17,10.59,14.2,5.05,9.74,11.33,21.87,26.57,25.1,4.66,1.11,8.03-1.84,8.94-5.31.91-3.47-.57-7.69-5.17-9.02l-.12-.03c-9.05-2.12-13.67-10.6-18.56-19.58-6.23-11.43-13.26-24.34-30.95-20.77-7.68-11.79-8.13-23.28-1.46-36.9,35.67,1,61.4,10.54,78.64,29.15,32.86,35.47,29.3,99.36,25.85,161.14-2.04,36.5-4.14,74.21,1.62,104.93-15.48-1.4-33.44-6.7-52.23-15.41-3.5-6.08-4.76-13.19-3.28-18.71.73-2.72,1.94-5.3,3.22-8.04,1.44-3.08,2.93-6.27,3.76-9.79,2.23-9.45,1.95-18.25-.9-28.55-.53-1.91-1.77-3.5-3.49-4.47-1.72-.98-3.72-1.22-5.63-.69-1.91.53-3.5,1.77-4.47,3.49-.98,1.72-1.22,3.72-.69,5.63,1.52,5.48,2.07,10.34,1.71,15.11-.99.06-1.97.18-2.93.29-2.57.3-5,.59-7-.15-3.36-1.51-4.91-4.33-6.58-8.98l-.07-.17c-.45-1.01-.98-2.72-1.55-4.53-2-6.37-4.48-14.3-9.61-16.25-1.44-.55-3.73-.85-6.49.8l-.14.09c-1.63,1.13-2.72,2.82-3.07,4.77-.35,1.95.08,3.92,1.2,5.54,2,2.89,3.12,6.48,4.31,10.28.46,1.47.94,3,1.45,4.43,4.41,13.24,13.47,19.97,25.74,19.28-3.24,7.16-4.88,13.57-3.97,21.11-25.18-14.24-49.58-33.12-70.87-54.88-45.43-44.19-81.08-119.31-62.1-168.52,10.85-28.12,38.93-44.15,81.32-46.48ZM368.73,56.26c.68-11.3,5.56-20.31,13.76-25.49,5.38,2.59,9.27,13.57,9.81,28,.59,16.01-3.14,29.89-8.83,33.52-9.69-8-15.57-22.26-14.75-36.03ZM21.66,121.67c-.09-5.14,2.39-10.26,6.34-17.76,6.36-11.62,22.43-31.51,30.69-28.44,12.48,7.13,23.82,17.77,36.57,34.35-13.73,14.41-24.57,31.02-32.25,49.46-13.29-16.12-28.85-28.45-41.35-37.61Z" fill="#153259"/>
  </g>
  <path d="M397.29,214.46c2.8,0,5.09,1.29,6.13,3.46l6.47,13.51.23-.11c.5,1.01,1.05,2.09,1.63,3.26l19.34,38.67,16.4,32.79c18.5,37.01,29.85,59.71,30.02,60.04l.1.19.1.19c.94,1.74.69,4.01-.68,6.23-.79,1.28-2.52,3.43-5.22,3.43h-.16s-.23,0-.23,0h-148.02c-2.48,0-4.65-1.21-5.96-3.32-1.3-2.11-1.42-4.6-.31-6.82l73.92-147.84.06-.12.06-.12c1.03-2.16,3.32-3.44,6.12-3.44h.01M397.29,199.46h-.01c-8.6,0-16.13,4.59-19.66,11.98l-73.92,147.84c-3.44,6.87-3.08,14.88.96,21.41,4.04,6.54,11.04,10.44,18.72,10.44h147.79c.21,0,.41,0,.61,0,7.24,0,13.89-3.92,17.99-10.55,4.2-6.8,4.62-14.74,1.12-21.23-.23-.45-25.47-50.95-46.4-92.81l-19.34-38.67c-5.53-11.05-7.46-14.92-8.14-16.47l-.08.04c-3.54-7.39-11.07-11.98-19.66-11.98h0Z" fill="#dc1b1a"/>
</svg>