<?xml version="1.0" encoding="UTF-8"?>
<svg id="Capa_1" xmlns="http://www.w3.org/2000/svg" version="1.1" viewBox="0 0 500 500">
  <!-- Generator: Adobe Illustrator 29.4.0, SVG Export Plug-In . SVG Version: 2.1.0 Build 152)  -->
  <g>
    <path d="M426.82,35.62H73.18c-20.3,0-36.81,16.51-36.81,36.8v272.04c0,10.43,4.47,20.41,12.27,27.4l1.33,1.2v66.61c0,12.8,10.41,23.21,23.21,23.21h353.64c12.8,0,23.21-10.41,23.21-23.21v-66.61l1.33-1.2c7.8-6.99,12.27-16.97,12.27-27.4V72.42c0-20.29-16.51-36.8-36.81-36.8ZM69.18,443.67v-62.4h361.64v3.99s.02,58.41.02,58.41H69.18ZM444.43,344.46c0,9.71-7.9,17.6-17.61,17.6H73.18c-9.71,0-17.61-7.89-17.61-17.6V72.42c0-9.7,7.9-17.6,17.61-17.6h353.64c9.71,0,17.61,7.9,17.61,17.6v272.04Z" fill="#153259"/>
    <path d="M273.2,412.47c0,5.29-4.3,9.6-9.6,9.6h-27.2c-5.3,0-9.6-4.31-9.6-9.6s4.3-9.6,9.6-9.6h27.2c5.3,0,9.6,4.3,9.6,9.6Z" fill="#153259"/>
    <path d="M177.99,412.47c0,5.29-4.31,9.6-9.6,9.6h-27.2c-5.3,0-9.61-4.31-9.61-9.6s4.31-9.6,9.61-9.6h27.2c5.29,0,9.6,4.3,9.6,9.6Z" fill="#153259"/>
    <path d="M368.42,412.47c0,5.29-4.31,9.6-9.61,9.6h-27.2c-5.29,0-9.6-4.31-9.6-9.6s4.31-9.6,9.6-9.6h27.2c5.3,0,9.61,4.3,9.61,9.6Z" fill="#153259"/>
  </g>
  <path d="M413.22,198.84h-30.53c-3.78,0-7.22,2.23-8.77,5.68l-16.05,35.93-17.63-36.21c-1.62-3.33-4.93-5.4-8.63-5.4h-19.93l1.14-4.91c.42-1.78.72-3.54.92-5.24,1.47-13.1-3.13-25.42-13.33-35.61-12.77-12.77-32.37-16.41-48.78-9.08l-1.63.73-1.63-.73c-16.43-7.33-36.03-3.68-48.78,9.08-10.2,10.19-14.81,22.51-13.33,35.61.2,1.7.5,3.46.92,5.25l1.14,4.9h-17.03l-21.91-49.02c-1.52-3.39-4.9-5.62-8.62-5.68-3.77.01-7.16,2.07-8.78,5.4l-24,49.3h-21.2c-5.3,0-9.6,4.31-9.6,9.6s4.3,9.6,9.6,9.6h27.2c3.71,0,7.01-2.07,8.63-5.4l17.63-36.2,16.05,35.92c1.55,3.45,4.99,5.68,8.77,5.68h30.53c.24,0,.48-.02.71-.04l2.21-.16,1.33,1.78c16.45,22.3,42.18,38.76,45.06,40.56,3.06,1.93,7.15,1.92,10.19.01,2.89-1.81,28.62-18.27,45.07-40.57l1.31-1.79,2.21.17c.25.02.49.04.73.04h21.19l24.01,49.3c1.59,3.28,4.98,5.4,8.63,5.4h.21c3.65-.06,7.04-2.29,8.55-5.68l21.92-49.02h24.3c5.29,0,9.6-4.3,9.6-9.6s-4.31-9.6-9.6-9.6ZM294.65,186.51c-2.44,21.69-32.99,45.51-42.29,52.3l-2.36,1.72-2.36-1.72c-9.3-6.79-39.85-30.62-42.29-52.3-.83-7.27,1.73-13.77,7.82-19.86,4.66-4.66,10.85-7.22,17.42-7.22,5,0,9.82,1.5,13.94,4.35,3.27,2.27,7.67,2.27,10.94,0,9.75-6.76,22.94-5.55,31.36,2.87,6.09,6.09,8.65,12.58,7.82,19.86Z" fill="#dc1b1a"/>
</svg>