<?xml version="1.0" encoding="UTF-8"?>
<svg id="Capa_3" xmlns="http://www.w3.org/2000/svg" version="1.1" viewBox="0 0 500 500">
  <!-- Generator: Adobe Illustrator 29.4.0, SVG Export Plug-In . SVG Version: 2.1.0 Build 152)  -->
  <path d="M480.73,173.04c-4.84-22.97-15.59-44.43-31.09-62.06-15.5-17.63-35.41-31.04-57.56-38.77-49-17.73-103.34-7.19-142.13,27.49l-6.85-5.45c-41.82-34.01-98.79-40.11-148.66-15.93-23.13,11.22-42.59,28.1-56.29,48.82-14.67,22.19-22.2,48.31-21.79,75.47-.23,13.61,2,26.97,6.63,39.74-3.85,1.29-6.6,4.94-6.63,9.13,0,5.4,4.39,9.79,9.79,9.79h5.02c25.87,50.27,80.61,94.17,122.09,122.2,47.22,31.91,89.62,51.74,96.53,52.81l.25.04.25-.04c7.69-1.39,72.16-32,135.98-81.43,2.05-1.62,3.35-3.95,3.66-6.54.3-2.6-.42-5.16-2.04-7.21-1.62-2.05-3.95-3.35-6.54-3.66-2.59-.3-5.15.42-7.2,2.04-38.53,29.62-80.29,55.27-124.14,76.25-11-4.84-48.71-23.56-89.91-51.59-35.19-23.95-81.96-61.07-106.68-102.86h49.11c4.05,0,7.73-2.55,9.16-6.34l15.13-40.23,15.14,40.23c1.43,3.79,5.11,6.34,9.16,6.34h17.51l21.91,58.25c.92,2.45,2.74,4.39,5.12,5.47,2.38,1.08,5.04,1.17,7.49.25,2.64-.99,4.73-3.08,5.72-5.72l39.41-104.77,15.06,40.17c1.43,3.8,5.11,6.35,9.17,6.35h35.57c5.4,0,9.79-4.39,9.79-9.79s-4.39-9.79-9.79-9.79h-28.78l-21.83-58.24c-1.42-3.8-5.1-6.35-9.17-6.35-4.05,0-7.73,2.55-9.16,6.34l-39.43,104.81-15.13-40.22c-1.43-3.79-5.11-6.34-9.16-6.34h-17.51l-21.92-58.25c-.92-2.45-2.74-4.39-5.12-5.47-2.38-1.08-5.04-1.17-7.49-.25-2.64.99-4.73,3.08-5.72,5.72l-21.91,58.25h-52.04c-5.46-12.96-8.14-27.19-7.76-41.25,1.14-49.12,28.3-89.32,72.65-107.55,46.43-19.08,98.25-8.76,135.22,26.94l.11.09c3.59,2.86,8.61,2.86,12.2,0l13.03-10.38c31.79-26.33,75.2-33.29,116.14-18.62,40.13,14.39,68.64,46.56,76.27,86.1,1.18,5.27,6.43,8.59,11.7,7.41,5.17-1.16,8.46-6.15,7.47-11.39Z" fill="#153259"/>
  <g>
    <path d="M407.55,177.34c-40.88,0-74.13,33.25-74.13,74.12s33.25,74.12,74.13,74.12,74.12-33.25,74.12-74.12c-.05-40.82-33.3-74.07-74.12-74.12ZM407.55,310c-32.28,0-58.54-26.26-58.54-58.54s26.26-58.54,58.54-58.54,58.54,26.26,58.54,58.54c-.04,32.24-26.3,58.5-58.54,58.54Z" fill="#dc1b1a"/>
    <path d="M444.34,232.12c0,2.08-.8,4.04-2.26,5.51l-38.7,38.69c-1.47,1.48-3.43,2.29-5.51,2.29s-4.04-.81-5.51-2.29l-19.34-19.34c-3.01-3.03-3.01-7.96,0-10.99,1.46-1.47,3.42-2.29,5.52-2.29s4.03.8,5.49,2.26l13.84,13.84,33.19-33.18c3.03-3.02,7.96-3.02,10.99,0,1.47,1.46,2.29,3.42,2.29,5.5Z" fill="#dc1b1a"/>
  </g>
</svg>