<?xml version="1.0" encoding="UTF-8"?>
<svg id="Layer_1" xmlns="http://www.w3.org/2000/svg" version="1.1" viewBox="0 0 500 500">
  <!-- Generator: Adobe Illustrator 29.4.0, SVG Export Plug-In . SVG Version: 2.1.0 Build 152)  -->
  <rect x="112.02" y="410.04" width="169.21" height="42.02" fill="none" stroke="#153259" stroke-linecap="round" stroke-linejoin="round" stroke-width="19"/>
  <g>
    <line x1="423.76" y1="99.52" x2="487.66" y2="99.52" fill="none" stroke="#153259" stroke-linecap="round" stroke-linejoin="round" stroke-width="19"/>
    <g>
      <path d="M353.3,322.07H39.95c-15.25,0-27.62-12.36-27.62-27.62V75.56c0-15.25,12.36-27.62,27.62-27.62h313.35c15.25,0,27.62,12.36,27.62,27.62v218.89c0,15.25-12.37,27.62-27.62,27.62Z" fill="none" stroke="#153259" stroke-linecap="round" stroke-linejoin="round" stroke-width="19"/>
      <rect x="125.96" y="322.07" width="141.34" height="47.89" fill="none" stroke="#153259" stroke-linecap="round" stroke-linejoin="round" stroke-width="19"/>
      <rect x="56.24" y="369.96" width="280.78" height="82.1" fill="none" stroke="#153259" stroke-linecap="round" stroke-linejoin="round" stroke-width="19"/>
    </g>
    <path d="M337.02,452.05h79.47c21.66,0,39.22-17.56,39.22-39.22v-190.79" fill="none" stroke="#153259" stroke-linecap="round" stroke-linejoin="round" stroke-width="19"/>
    <path d="M478.57,219.76h-45.73V79.94c0-12.63,10.24-22.86,22.86-22.86h0c12.63,0,22.86,10.24,22.86,22.86v139.82h0Z" fill="none" stroke="#153259" stroke-linecap="round" stroke-linejoin="round" stroke-width="19"/>
  </g>
  <path d="M232.89,116.12c-21.65,0-31.36,12.1-35.18,19.21-.48.89-1.78.89-2.26,0-3.81-7.11-13.47-19.21-35.11-19.21-24.66,0-46.35,16.79-46.35,47.45,0,12.41,2.54,23.03,9.57,34.9,14.34,24.17,61.57,48.75,71.27,54.92,1.07.68,2.43.68,3.51,0,9.71-6.15,56.95-30.56,71.4-54.92,7.04-11.86,9.55-22.49,9.55-34.9,0-30.66-21.73-47.45-46.38-47.45Z" fill="none" stroke="#dc1b1a" stroke-linecap="round" stroke-linejoin="round" stroke-width="19"/>
  <g>
    <line x1="304.83" y1="239.08" x2="337.02" y2="239.08" fill="none" stroke="#dc1b1a" stroke-linecap="round" stroke-linejoin="round" stroke-width="19"/>
    <line x1="266.84" y1="278.63" x2="337.02" y2="278.63" fill="none" stroke="#dc1b1a" stroke-linecap="round" stroke-linejoin="round" stroke-width="19"/>
  </g>
</svg>