<?xml version="1.0" encoding="UTF-8"?>
<svg id="Capa_2" xmlns="http://www.w3.org/2000/svg" version="1.1" viewBox="0 0 1024 1024">
  <!-- Generator: Adobe Illustrator 29.4.0, SVG Export Plug-In . SVG Version: 2.1.0 Build 152)  -->
  <path d="M73.75,531.75h145.48c5.05,0,9.92-1.93,13.59-5.41l53.9-51.04,46.44,126.69c3.75,10.24,15.09,15.5,25.33,11.76,6.14-2.25,10.77-7.39,12.37-13.73l64.13-257.62,29.48,446.48c.62,9.43,7.84,17.1,17.22,18.28.83.11,1.67.16,2.51.16,8.51,0,16.07-5.46,18.74-13.54l98.73-298.15,54.22,106.05c3.44,6.69,9.5,10.43,17.93,10.76,7.53-.13,14.33-4.53,17.53-11.35l32.44-69.33h74.76c9.25,12.39,23.79,19.71,39.25,19.75,34.63,0,49.36-14.75,49.36-49.36.03-27.26-22.05-49.39-49.31-49.41-23.49-.02-43.75,16.52-48.43,39.54h-78.19c-7.65,0-14.62,4.43-17.87,11.35l-20.75,44.25-57.26-112.21c-4.96-9.71-16.85-13.56-26.57-8.6-4.63,2.36-8.13,6.45-9.76,11.39l-81.82,246.94-31.16-471.7c-.58-10.89-9.88-19.25-20.77-18.67-8.76.46-16.16,6.65-18.17,15.19l-78.98,317.76-34.59-94.42c-3.76-10.24-15.1-15.49-25.34-11.74-2.52.92-4.82,2.35-6.77,4.19l-70.06,66.26H73.62l.13,39.49Z" fill="#dc1b1a"/>
  <path d="M934.98,117.09H89.02c-28.11.02-50.88,22.8-50.9,50.9v688c.02,28.1,22.8,50.88,50.9,50.9h845.97c28.1-.02,50.88-22.8,50.9-50.9V168c-.02-28.1-22.8-50.88-50.91-50.9ZM77.6,492.25V168c0-6.3,5.11-11.41,11.41-11.41h845.97c6.3,0,11.41,5.11,11.41,11.41v688.01h0c0,6.3-5.11,11.41-11.41,11.41H89.02c-6.3,0-11.41-5.11-11.41-11.41v-363.75Z" fill="#153259"/>
</svg>