<?xml version="1.0" encoding="UTF-8"?>
<svg id="Layer_1" xmlns="http://www.w3.org/2000/svg" version="1.1" viewBox="0 0 512 512">
  <!-- Generator: Adobe Illustrator 29.4.0, SVG Export Plug-In . SVG Version: 2.1.0 Build 152)  -->
  <path d="M266.3,373.35h-58l-13.37-10.03,1.18-2.87c2.9-7.01,4.37-14.41,4.37-22.01,0-31.89-25.94-57.83-57.83-57.83s-57.82,25.94-57.82,57.83,25.94,57.82,57.82,57.82c13.24,0,25.72-4.39,36.08-12.69l2.42-1.94,16.45,12.34c1.98,1.48,4.42,2.29,6.88,2.29h61.82c6.32,0,11.46-5.14,11.46-11.46s-5.14-11.45-11.46-11.45ZM170.64,359.28l-.14.18c-6.67,8.83-16.82,13.89-27.85,13.89-19.25,0-34.91-15.66-34.91-34.92s15.66-34.91,34.91-34.91c13.25,0,25.19,7.42,31.17,19.36,5.95,11.86,4.73,25.81-3.18,36.4Z" fill="#dc1b1a"/>
  <path d="M455.46,347.82l-.08-.03-70.14-31.51,39.27-146.71h22.12c23.36,0,42.37-19.01,42.37-42.37s-19.01-42.37-42.37-42.37h-61.83c-23.36,0-42.37,19-42.37,42.37s19.01,42.37,42.37,42.37h15.99l-36.73,137.2-4.29-1.92c-36.28-16.3-65.22-29.38-88.48-39.88-93.11-42.07-94.89-42.87-113.68-45.24l-3.5-.44v-111.55h34.91c6.32,0,11.46-5.14,11.46-11.46s-5.14-11.45-11.46-11.45h-92.74c-10.73,0-19.45-8.73-19.45-19.46s8.72-19.46,19.45-19.46c6.32,0,11.46-5.14,11.46-11.45s-5.14-11.46-11.46-11.46c-23.36,0-42.37,19.01-42.37,42.37s19.01,42.37,42.37,42.37h34.92v111.54l-3.51.44c-59.68,7.47-104.69,58.51-104.69,118.71s45.01,111.25,104.69,118.72l3.51.44v19.95c0,6.32,5.14,11.46,11.45,11.46s11.46-5.14,11.46-11.46v-19.46h265.61v19.46c0,6.32,5.14,11.46,11.46,11.46s11.45-5.14,11.45-11.46v-20.51l3-.77c25.54-6.6,43.37-29.63,43.37-56,0-22.45-13.16-43.03-33.54-52.44ZM384.8,146.65c-10.72,0-19.45-8.73-19.45-19.45s8.73-19.46,19.45-19.46h61.83c10.73,0,19.46,8.73,19.46,19.46s-8.73,19.45-19.46,19.45h-61.83ZM455.85,424.94c-6.6,6.6-15.36,10.23-24.68,10.23H142.65c-53.34,0-96.74-43.39-96.74-96.74s43.4-96.73,96.74-96.73c14.16,0,27.6,3.01,41.09,9.2l262.14,117.73c12.48,5.8,20.21,17.91,20.21,31.63,0,9.31-3.64,18.08-10.24,24.68Z" fill="#153259"/>
</svg>