<?xml version="1.0" encoding="UTF-8"?>
<svg id="Capa_1" xmlns="http://www.w3.org/2000/svg" version="1.1" viewBox="0 0 512 512">
  <!-- Generator: Adobe Illustrator 29.4.0, SVG Export Plug-In . SVG Version: 2.1.0 Build 152)  -->
  <g>
    <path d="M182.33,367.26H50.86c-10.42,0-18.86-8.44-18.86-18.86v-187.95c0-10.42,8.44-18.86,18.86-18.86h131.47c10.42,0,18.86,8.44,18.86,18.86v187.95c0,10.42-8.45,18.86-18.86,18.86Z" fill="none" stroke="#153259" stroke-linecap="round" stroke-linejoin="round" stroke-width="19"/>
    <path d="M116.74,367.26h0c0,61.4,49.77,111.17,111.17,111.17h115.48c74.9,0,135.61-60.71,135.61-135.61V62.18c0-16.73-13.56-30.29-30.29-30.29h0c-16.73,0-30.29,13.56-30.29,30.29v272.96c0,43.63-35.37,79-79,79h0c-43.63,0-79-35.37-79-79V91.59" fill="none" stroke="#153259" stroke-linecap="round" stroke-linejoin="round" stroke-width="19"/>
    <path d="M418.27,313.98c0,21.79-17.67,39.46-39.46,39.46h0c-21.79,0-39.46-17.67-39.46-39.46v-141.19" fill="none" stroke="#153259" stroke-linecap="round" stroke-linejoin="round" stroke-width="19"/>
    <circle cx="339.35" cy="142.77" r="30.01" fill="none" stroke="#dc1b1a" stroke-linecap="round" stroke-linejoin="round" stroke-width="19"/>
    <circle cx="260.41" cy="61.58" r="30.01" fill="none" stroke="#dc1b1a" stroke-linecap="round" stroke-linejoin="round" stroke-width="19"/>
    <line x1="32.04" y1="217" x2="201.2" y2="217" fill="none" stroke="#153259" stroke-linecap="round" stroke-linejoin="round" stroke-width="19"/>
  </g>
  <circle cx="116.48" cy="292.43" r="25.64" fill="none" stroke="#dc1b1a" stroke-linecap="round" stroke-linejoin="round" stroke-width="19"/>
</svg>