<?xml version="1.0" encoding="UTF-8"?>
<svg id="Layer_1" xmlns="http://www.w3.org/2000/svg" version="1.1" viewBox="0 0 500 500">
  <!-- Generator: Adobe Illustrator 29.4.0, SVG Export Plug-In . SVG Version: 2.1.0 Build 152)  -->
  <path d="M448.04,55.95l-49.1-49.1c-2.62-2.62-6.86-2.62-9.48,0l-37.87,37.87-5.3-5.3c-2.62-2.62-6.86-2.62-9.48,0l-41.42,41.42c-2.62,2.62-2.62,6.86,0,9.48s6.86,2.62,9.48,0l36.68-36.68,59.7,59.7-29.94,29.94c-5.78-2.03-11.98-3.15-18.45-3.15-30.75,0-55.77,25.03-55.77,55.8,0,6.46,1.11,12.65,3.14,18.42l-20.02,20-59.68-59.68,67.43-67.43c2.62-2.62,2.62-6.86,0-9.48s-6.86-2.62-9.48,0l-72.17,72.17c-1.26,1.26-1.96,2.96-1.96,4.74s.71,3.48,1.96,4.74l8.48,8.48-19.44,19.44c-2.62,2.62-2.62,6.86,0,9.48l42.72,42.72c1.31,1.31,3.02,1.96,4.74,1.96s3.43-.65,4.74-1.96l19.44-19.44,8.48,8.48c1.31,1.31,3.02,1.96,4.74,1.96s3.43-.65,4.74-1.96l21.61-21.59c7.66,11.39,19.41,19.8,33.13,23.13,1.21,6.18,1.83,12.51,1.83,18.87,0,37.65-21.12,71.3-54.42,87.74l-2.79-11.46c-.73-3-3.42-5.12-6.51-5.12h-74.88c-3.09,0-5.78,2.11-6.51,5.12l-2.02,8.3c-9.39-5.47-17.79-12.47-24.89-20.71h21.73c3.7,0,6.7-3,6.7-6.7v-31.67c0-3.7-3-6.7-6.7-6.7H56.7c-3.7,0-6.7,3-6.7,6.7v31.67c0,3.7,3,6.7,6.7,6.7h38.24c16.2,37.66,46.39,68.01,83.91,84.42l-4.34,17.82h-56.5c-29.39,0-53.3,23.91-53.3,53.31,0,3.7,3,6.7,6.7,6.7h337.85c3.7,0,6.7-3,6.7-6.7,0-29.39-23.9-53.31-53.28-53.31h-56.51l-3.73-15.33c61.85-24.12,102.99-83.95,102.99-150.78,0-14.56-1.95-28.93-5.74-42.79,5.67-8.73,8.97-19.12,8.97-30.27,0-19.27-9.82-36.29-24.72-46.32l31.53-31.53c2.62-2.62,2.62-6.86,0-9.48l-5.3-5.3,37.87-37.87c2.62-2.62,2.62-6.87,0-9.48h0ZM242.81,245.32l-33.24-33.24,14.7-14.7,33.24,33.24-14.7,14.7ZM63.41,301.19h121.1v18.26H63.41v-18.26ZM109.67,332.86h42.84c10.04,14.31,23.25,26.02,38.57,34.23l-9,36.95c-31.66-14.45-57.42-39.81-72.41-71.19h0ZM402,481.7H78.68c3.2-18.82,19.62-33.19,39.33-33.19h244.67c19.7,0,36.11,14.37,39.31,33.19ZM188.32,435.1l19.86-81.53h64.35l19.86,81.53h-104.06ZM299.25,406.62l-8.91-36.58c18.1-8.36,33.57-21.37,44.98-37.92,12.83-18.61,19.61-40.43,19.61-63.11,0-5.82-.46-11.61-1.35-17.31,13.44-.17,25.74-5.11,35.3-13.2,2.08,9.97,3.15,20.19,3.15,30.51,0,60.69-36.99,115.08-92.78,137.62ZM395.26,195.94c0,23.36-19.02,42.37-42.39,42.37s-42.37-19.01-42.37-42.37,19.01-42.39,42.37-42.39,42.39,19.02,42.39,42.39ZM400.69,93.82l-39.62-39.62,33.13-33.13,39.62,39.62-33.13,33.13ZM352.86,172.16c-13.11,0-23.78,10.67-23.78,23.78s10.67,23.78,23.78,23.78,23.78-10.67,23.78-23.78-10.67-23.78-23.78-23.78ZM352.86,206.3c-5.72,0-10.37-4.65-10.37-10.37s4.65-10.37,10.37-10.37,10.37,4.65,10.37,10.37-4.65,10.37-10.37,10.37Z" fill="#153259"/>
  <path d="M136.49,138.68c-2.59-3.49-5.04-6.79-7.09-9.65-1.26-1.75-3.29-2.79-5.45-2.79s-4.18,1.04-5.44,2.79c-2.04,2.85-4.48,6.13-7.05,9.6-17.89,24.11-42.38,57.14-42.38,81.17,0,30.26,24.61,54.88,54.87,54.88s54.88-24.62,54.88-54.88c0-24.09-24.47-57.05-42.34-81.12ZM123.96,261.27c-22.87,0-41.48-18.61-41.48-41.48,0-19.59,24.88-53.13,39.74-73.17.59-.79,1.17-1.57,1.74-2.34.58.79,1.17,1.58,1.77,2.39,14.84,20,39.7,53.47,39.7,73.12,0,22.87-18.61,41.48-41.47,41.48Z" fill="#dc1b1a"/>
</svg>