<?xml version="1.0" encoding="UTF-8"?>
<svg id="Capa_1" xmlns="http://www.w3.org/2000/svg" version="1.1" viewBox="0 0 500 500">
  <!-- Generator: Adobe Illustrator 29.4.0, SVG Export Plug-In . SVG Version: 2.1.0 Build 152)  -->
  <g id="Page-1">
    <g id="_x30_30---Heart-Pacemaker">
      <path id="Shape" d="M95.56,173.66c-29.73,9.93-49.26,41.09-52.25,83.32-.15,2.11.54,4.19,1.93,5.79s3.35,2.58,5.46,2.73h.57c4.19.01,7.67-3.22,7.96-7.4,2.52-35.6,18.01-61.52,41.41-69.34,2.7-.9,4.72-3.17,5.29-5.97s-.39-5.68-2.52-7.57-5.11-2.5-7.81-1.6l-.03.04Z" fill="#153259"/>
      <path id="Shape1" data-name="Shape" d="M133.99,459.87c19.31,10.08,39.67,18.03,60.7,23.69,11.72,3.11,23.77,4.75,35.89,4.88,15.03.34,29.87-3.34,43.01-10.66,17.78-10.35,31.43-28.14,41.79-54.58l.37-.95c.37-.94.72-1.87,1-2.84,1.21-4.23-1.24-8.64-5.47-9.85s-8.64,1.24-9.85,5.47c-.14.48-.32.92-.49,1.38l-.45,1.17c-8.92,22.77-20.34,37.96-34.88,46.43-16.8,9.73-39.35,11.15-66.98,4.11-19.93-5.39-39.21-12.94-57.51-22.51-72.89-34.32-117.81-109.3-113.68-189.76,1.05-19.36,6.23-38.26,15.19-55.45.91-.94,1.58-2.08,1.94-3.34,10.11-18.03,26.47-31.73,45.99-38.51,12.55-4.47,25.9-6.21,39.17-5.13,8.68.82,17.13,3.18,24.98,6.97,41.33,20.05,57.47,74.75,57.63,75.31,1.31,4.11,5.64,6.43,9.78,5.24,4.14-1.19,6.59-5.45,5.53-9.62-.68-2.39-16.1-54.95-57.52-80.59,20.44-25.05,73.17-74.94,153-48.74,2.45.8,4.91,1.81,7.37,2.75-10.62,10.83-16.01,25.75-14.75,40.86-36.2-7.82-59.17-1.2-72.54,6.49-5.01,2.68-9.47,6.29-13.11,10.66-1.76,2.41-2.02,5.61-.68,8.27,1.34,2.67,4.06,4.36,7.05,4.38,2.46,0,4.79-1.12,6.32-3.05,1.98-2.11,4.25-3.94,6.73-5.44,24.87-1.23,43.33,26.82,50.17,39.23,18.88,34.07,26.28,77.7,21.41,126.24-.57,6.01-1.42,12.5-2.63,19.83-.58,2.85.45,5.8,2.68,7.67,2.23,1.87,5.3,2.38,8.02,1.33,2.71-1.06,4.63-3.51,5.01-6.4,1.27-7.71,2.19-14.56,2.78-20.89,5.19-51.73-2.87-98.58-23.33-135.5-8.48-16.18-20.91-29.94-36.14-40.03,17.94-.85,35.88,1.72,52.86,7.58,1.61.5,3.27.77,4.95.8,11.36,0,23.4-10.48,29.33-26.57,3.04-7.8,3.99-16.26,2.76-24.54-.87-7.34-5.32-13.76-11.88-17.16-.17-.1-.26-.25-.44-.34-8.7-4.46-17.74-8.24-27.02-11.3-72.35-23.76-124.53,8.25-153.7,35.97,2.93-20.1,4.26-40.4,3.98-60.72v-26.6c0-16.06-24.05-24.45-47.78-24.45s-47.78,8.4-47.78,24.46c0,5.71.08,11.04.16,15.93.13,8.53.24,15.93-.14,21.69-.47,7.1-3.02,30.96-16.16,39.92-26.01,17.56-40.44,47.85-37.7,79.11-10.24,19.37-16.17,40.72-17.39,62.6-4.57,86.88,43.81,167.91,122.45,205.1h0ZM349.74,134.67c-4.34,11.79-12.13,17.08-15.02,16.06s-5.34-10.18-.99-21.96c3.98-10.83,10.93-16.18,14.23-16.18.27,0,.54.04.8.13,1.29.48,2.47,2.72,2.99,5.71.73,5.5.03,11.09-2.01,16.25h0ZM130.55,26.99c19.22,0,30.26,5.96,31.77,8.53-1.51,2.62-12.54,8.54-31.77,8.54s-30.87-6.29-31.86-8.25v-.06c.99-2.47,12.1-8.76,31.86-8.76ZM75.6,126.25c18.56-12.65,22.3-40.62,23.1-52.03.37-5.68.32-12.38.22-19.97,10.07,3.96,20.82,5.91,31.64,5.74,10.9.17,21.72-1.81,31.86-5.82v7.96c.94,27.13-2.01,54.26-8.76,80.56-7.19-2.66-14.7-4.38-22.34-5.1-15.5-1.3-31.1.69-45.77,5.86-14.6,4.91-27.8,13.24-38.52,24.3,3.78-17.02,14.03-31.9,28.58-41.5Z" fill="#153259"/>
      <path id="Shape2" data-name="Shape" d="M475.42,211.44l-32.91-32.91c-16.86-16.86-42.21-21.91-64.24-12.79-22.03,9.13-36.39,30.63-36.38,54.47-.34,15.84,5.11,31.25,15.34,43.35l12.22,13.4v25.96c.02,14.74,11.96,26.68,26.7,26.7h29.05v23.89c0,13.2-10.7,23.89-23.89,23.89h-120.26c-4.09-20.03-22.68-33.71-43.02-31.65s-35.82,19.18-35.82,39.62,15.48,37.56,35.82,39.62,38.93-11.63,43.02-31.65h120.26c21.98-.03,39.79-17.84,39.82-39.82v-23.89h2.39c25.05-.04,45.35-20.34,45.39-45.39v-40.15c0-1.55-.11-2.99-.24-4.52-1.04-10.62-5.72-20.56-13.26-28.11h0ZM242.04,409.26c-9.66,0-18.38-5.82-22.07-14.75s-1.65-19.2,5.18-26.04c6.83-6.83,17.11-8.88,26.04-5.18s14.75,12.41,14.75,22.07c0,13.2-10.7,23.89-23.89,23.89h0ZM357.83,220.22c-.01-17.4,10.47-33.1,26.54-39.76s34.58-2.98,46.88,9.33l32.91,32.91c4.91,4.93,7.97,11.4,8.66,18.32.07,1,.17,2.01.17,3.09v21.73h-92.14l-11.83-12.97c-7.59-9.16-11.57-20.77-11.19-32.65h0ZM443.53,313.7h-47.37c-5.94,0-10.76-4.82-10.77-10.77v-21.19h87.6v2.47c-.02,16.27-13.2,29.46-29.47,29.49Z" fill="#dc1b1a"/>
    </g>
  </g>
</svg>