<?xml version="1.0" encoding="UTF-8"?>
<svg id="Capa_1" xmlns="http://www.w3.org/2000/svg" version="1.1" viewBox="0 0 500 500">
  <!-- Generator: Adobe Illustrator 29.4.0, SVG Export Plug-In . SVG Version: 2.1.0 Build 152)  -->
  <path d="M311.03,242.58h-122.07c-8.12,0-15.59,4.42-19.5,11.53l-70.68,128.51c-3.01,5.48-4.59,11.63-4.59,17.88v20.15c0,8.19,6.64,14.84,14.84,14.84h281.94c8.19,0,14.84-6.64,14.84-14.84v-20.15c0-6.25-1.58-12.4-4.59-17.88l-70.68-128.51c-3.91-7.11-11.39-11.53-19.5-11.53Z" fill="none" stroke="#153259" stroke-linecap="round" stroke-linejoin="round" stroke-width="17"/>
  <line x1="160.97" y1="390.97" x2="402.1" y2="390.97" fill="none" stroke="#153259" stroke-linecap="round" stroke-linejoin="round" stroke-width="17"/>
  <line x1="97.9" y1="390.97" x2="131.29" y2="390.97" fill="none" stroke="#153259" stroke-linecap="round" stroke-linejoin="round" stroke-width="17"/>
  <path d="M205.48,242.58v-14.84c0-8.19,6.64-14.84,14.84-14.84h59.35c8.19,0,14.84,6.64,14.84,14.84v14.84" fill="none" stroke="#153259" stroke-linecap="round" stroke-linejoin="round" stroke-width="17"/>
  <path d="M353.87,435.48v37.1c0,4.1-3.32,7.42-7.42,7.42h-192.9c-4.1,0-7.42-3.32-7.42-7.42v-37.1" fill="none" stroke="#153259" stroke-linecap="round" stroke-linejoin="round" stroke-width="17"/>
  <path d="M375.23,273.79c5.29-14.37,8.32-29.84,8.32-46.05,0-73.76-59.79-133.55-133.55-133.55s-133.55,59.79-133.55,133.55c0,16.21,3.03,31.67,8.32,46.05" fill="none" stroke="#dc1b1a" stroke-linecap="round" stroke-linejoin="round" stroke-width="17"/>
  <path d="M417.48,350.62c25.29-34.42,40.26-76.89,40.26-122.87,0-114.73-93.01-207.74-207.74-207.74S42.26,113.01,42.26,227.74c0,45.98,14.97,88.46,40.26,122.87" fill="none" stroke="#dc1b1a" stroke-linecap="round" stroke-linejoin="round" stroke-width="17"/>
  <line x1="428.06" y1="227.74" x2="413.23" y2="227.74" fill="none" stroke="#dc1b1a" stroke-linecap="round" stroke-linejoin="round" stroke-width="17"/>
  <line x1="86.77" y1="227.74" x2="71.94" y2="227.74" fill="none" stroke="#dc1b1a" stroke-linecap="round" stroke-linejoin="round" stroke-width="17"/>
  <path d="M272.26,94.19h-44.52c-8.19,0-14.84-6.64-14.84-14.84h0c0-8.19,6.64-14.84,14.84-14.84h44.52c8.19,0,14.84,6.64,14.84,14.84h0c0,8.19-6.64,14.84-14.84,14.84Z" fill="none" stroke="#dc1b1a" stroke-linecap="round" stroke-linejoin="round" stroke-width="17"/>
</svg>