<?xml version="1.0" encoding="UTF-8"?>
<svg id="Layer_1" xmlns="http://www.w3.org/2000/svg" version="1.1" xmlns:svgjs="http://svgjs.dev/svgjs" viewBox="0 0 500 500">
  <!-- Generator: Adobe Illustrator 29.4.0, SVG Export Plug-In . SVG Version: 2.1.0 Build 152)  -->
  <path d="M475.72,358.63c0-54.94-44.7-99.64-99.64-99.64-17.44,0-34.3,4.5-49.26,13.03-17.35-28.32-42.39-59.92-54.36-74.37,26.12-19.76,64.21-25.04,85.51-26.4,7.7-.47,14.88-4.14,19.72-10.07,4.84-5.93,6.9-13.38,5.82-20.95l-3.8-27.13c-2.12-14.7-14.39-25.37-29.18-25.37-3.13,0-6.39.06-9.74.15l14.78-39.03c2.68-7.05,1.71-14.97-2.57-21.18s-11.35-9.92-18.9-9.92h-30.64c-8.43,0-16.16,4.6-20.18,12l-37.87,69.69-5.01,1.11c-6.14,1.41-12.08,2.81-17.94,4.22l9.42-60.53c1.03-6.64-.88-13.37-5.25-18.47-4.37-5.1-10.72-8.03-17.44-8.03h-30.81c-11.93,0-21.99,9.31-22.9,21.2l-3.14,40.79-21.22,2.05c-10,1-19.76-3.58-25.45-11.89l-6.43-9.38c-11.31-16.5-33.42-21.06-50.35-10.41-16.74,10.54-22.25,32.31-12.55,49.56l8.81,15.66c1.66,2.94,1.52,6.51-.37,9.32l-11.37,16.92c-13.72,20.41-11.81,47.44,4.63,65.73l20.8,23.14c-6.02,16.61-10.05,35.55-9.63,56.41,1.04,49.55,27.83,120.44,149.81,176.88,17.62,8.15,39.99,18.49,64.04,18.49,8.97,0,18.17-1.44,27.45-4.96,15.04-5.75,28.04-16.06,38.73-30.68,14.28,7.65,30.33,11.68,46.84,11.68,54.94,0,99.64-44.7,99.64-99.64ZM296.89,37.14c1.31-2.41,3.83-3.91,6.57-3.91h30.64c2.5,0,4.74,1.18,6.16,3.23s1.72,4.57.84,6.9l-17.15,45.28c-19.77,1.2-39.45,3.51-58.81,6.93l31.75-58.44ZM178.37,33.23h30.81c2.22,0,4.24.93,5.68,2.62s2.05,3.82,1.71,6.02l-10.43,67c-13.13,3.38-27.43,7.51-41.53,13.01l6.29-81.74c.3-3.87,3.58-6.91,7.46-6.91ZM49.54,196.96c-11.69-13.01-13.05-32.23-3.29-46.74l11.37-16.92c5.17-7.69,5.55-17.48,1.01-25.55l-8.81-15.66c-5.65-10.04-2.43-22.72,7.31-28.86,9.85-6.21,22.73-3.55,29.32,6.06l6.43,9.38c8.87,12.94,24.07,20.04,39.71,18.54l18.52-1.79-2.58,33.55c-19.25,9.44-35.66,21.36-49.8,36.56-8.23,8.83-22.26,25.9-33.31,49.11l-15.89-17.67ZM284.99,462.81c-28.07,10.64-56.58-2.52-79.64-13.19-114.56-53-139.72-117.93-140.66-163.07-1.1-54.56,31.37-95.42,45.39-110.47,13.65-14.67,29.56-26.09,48.58-34.93.18-.07.33-.18.5-.26,18.27-8.41,38.44-13.98,55.8-18.34,9.31-2.39,18.93-4.62,28.87-6.91l8.28-1.84c.08-.02.17-.03.25-.05.08-.02.15-.02.23-.04,25.11-5.28,51.02-8.63,76.96-9.96.12,0,.23-.01.36-.02,7.32-.3,14.21-.53,20.64-.53,7.02,0,12.85,5.09,13.85,12.07l3.8,27.12c.46,3.25-.42,6.45-2.5,8.99-2.14,2.63-5.22,4.19-8.68,4.4-30.43,1.93-72.53,9.58-100.52,34.98-.02.02-.05.02-.07.04-.01.01-.02.03-.03.04-.03.03-.08.06-.11.09-8.11,7.39-14.55,15.94-19.16,25.39-28.94,59.2-54.33,79.08-54.7,79.36-3.4,2.57-4.09,7.4-1.53,10.82s7.42,4.11,10.84,1.56c1.15-.86,28.41-21.74,59.3-84.95,2.65-5.44,5.99-10.36,10.03-14.94,11.87,14.38,36.5,45.59,53,72.68-23.61,18.86-37.63,47.34-37.63,77.76s14.83,60.72,39.81,79.47c-8.81,11.83-19.3,20.14-31.25,24.71ZM376.08,442.79c-16.1,0-31.66-4.51-45.02-13.04-24.5-15.51-39.13-42.09-39.13-71.12s13.71-53.74,36.66-69.48c14-9.6,30.42-14.68,47.5-14.68,46.4,0,84.16,37.75,84.16,84.16s-37.75,84.16-84.16,84.16Z" display="none" fill="#153259"/>
  <path d="M383.51,140.24l-3.8-27.13c-2.11-14.7-14.39-25.38-29.18-25.38-3.13,0-6.39.06-9.74.15l14.78-39.03c2.68-7.05,1.72-14.97-2.57-21.18-4.29-6.22-11.35-9.92-18.9-9.92h-30.64c-8.43,0-16.16,4.6-20.18,12l-37.87,69.69-5.01,1.11c-6.13,1.41-12.08,2.81-17.94,4.22l9.42-60.52c1.03-6.64-.88-13.38-5.25-18.48-4.37-5.1-10.73-8.02-17.44-8.02h-30.82c-11.93,0-21.99,9.31-22.9,21.2l-3.14,40.79-21.22,2.05c-10,1-19.76-3.58-25.45-11.88l-6.43-9.38c-11.32-16.5-33.42-21.06-50.35-10.41-16.73,10.55-22.25,32.31-12.55,49.56l8.81,15.66c1.66,2.94,1.51,6.52-.37,9.32l-11.37,16.93c-13.72,20.41-11.82,47.43,4.63,65.72l20.8,23.14c-6.02,16.61-10.05,35.55-9.63,56.41,1.04,49.56,27.84,120.44,149.82,176.89,17.62,8.15,39.99,18.49,64.04,18.49,8.96,0,18.17-1.44,27.44-4.96,15-5.74,27.97-16.02,38.64-30.58-4.91-1.9-9.69-4.16-14.3-6.77-8.52,10.85-18.53,18.55-29.85,22.88-28.07,10.64-56.58-2.52-79.64-13.2-114.56-53-139.72-117.93-140.66-163.06-1.11-54.56,31.37-95.43,45.38-110.47,13.65-14.67,29.56-26.09,48.58-34.92.18-.07.33-.18.5-.26,18.27-8.41,38.44-13.98,55.8-18.34,9.31-2.38,18.93-4.61,28.87-6.91l8.28-1.83c.08-.02.17-.04.25-.05.08-.02.15-.03.23-.05,25.11-5.27,51.02-8.63,76.96-9.96.12,0,.23-.01.35-.01,7.33-.31,14.21-.53,20.64-.53,7.02,0,12.85,5.09,13.85,12.07l3.8,27.12c.47,3.25-.42,6.44-2.49,8.99-2.14,2.63-5.22,4.19-8.68,4.4-30.43,1.93-72.54,9.58-100.53,34.98-.02.02-.04.02-.06.04-.01.01-.02.03-.03.04-.03.03-.08.05-.11.09-8.11,7.39-14.56,15.94-19.16,25.39-28.94,59.2-54.33,79.08-54.7,79.36-3.4,2.57-4.08,7.4-1.52,10.82,2.55,3.42,7.42,4.11,10.83,1.56,1.15-.86,28.41-21.75,59.31-84.95,2.64-5.44,5.99-10.36,10.03-14.94,8.9,10.8,25.01,31.07,39.47,51.97,4.03-3.22,8.29-6.17,12.76-8.79-15.08-21.83-31.74-42.73-40.84-53.72,26.12-19.76,64.2-25.04,85.51-26.39,7.7-.47,14.88-4.14,19.72-10.08,4.84-5.93,6.9-13.38,5.82-20.94ZM148.54,128.97c-19.25,9.44-35.66,21.36-49.8,36.56-8.23,8.83-22.26,25.9-33.31,49.11l-15.89-17.68c-11.69-13-13.04-32.22-3.29-46.74l11.37-16.92c5.17-7.69,5.55-17.49,1.01-25.55l-8.81-15.66c-5.64-10.04-2.43-22.72,7.32-28.86,9.85-6.22,22.73-3.55,29.32,6.06l6.43,9.38c8.87,12.94,24.07,20.03,39.71,18.54l18.53-1.79-2.59,33.55ZM216.58,41.86l-10.43,67c-13.13,3.38-27.43,7.51-41.53,13.01l6.29-81.73c.3-3.88,3.58-6.91,7.46-6.91h30.82c2.22,0,4.23.93,5.68,2.62,1.44,1.68,2.05,3.82,1.71,6.01ZM323.94,88.64c-19.76,1.2-39.45,3.51-58.8,6.93l31.75-58.43c1.3-2.41,3.82-3.91,6.57-3.91h30.64c2.49,0,4.74,1.18,6.15,3.23,1.42,2.05,1.73,4.57.84,6.9l-17.15,45.28Z" fill="#153259"/>
  <path d="M422.94,350.28h-12.53c-1.65,0-3.23.7-4.34,1.91l-6.07,6.64,4.87-44.45c.32-2.9-1.54-5.6-4.36-6.34-2.82-.71-5.76.71-6.9,3.4l-10.44,24.6h-14.33c-2.29,0-4.37,1.33-5.34,3.41l-3.86,8.31,1.98-35.12c.16-2.75-1.62-5.24-4.27-5.99-2.67-.75-5.47.44-6.78,2.86l-19.4,35.83h-17.28c-3.25,0-5.89,2.63-5.89,5.89s2.64,5.89,5.89,5.89h20.79c2.16,0,4.15-1.18,5.18-3.08l8.54-15.78-2.22,39.51c-.16,2.82,1.71,5.36,4.45,6.04.48.12.96.18,1.43.18,2.24,0,4.35-1.29,5.33-3.41l15.22-32.76h14.47c.83,0,1.63-.17,2.36-.49l-3.08,28.14c-.28,2.53,1.1,4.95,3.43,6.01,2.32,1.05,5.05.49,6.77-1.39l16.47-18.02h9.94c3.25,0,5.89-2.63,5.89-5.89s-2.64-5.89-5.89-5.89Z" fill="#dc1b1a"/>
  <path d="M368.41,236.35c-60.01,0-108.83,48.82-108.83,108.83,0,20.06,5.47,39.55,15.85,56.57l-9.96,37.19c-.69,2.59.05,5.35,1.94,7.24,1.89,1.9,4.66,2.64,7.24,1.94l37.19-9.96c17.02,10.38,36.51,15.85,56.57,15.85,60.01,0,108.83-48.82,108.83-108.83s-48.82-108.83-108.83-108.83ZM368.41,439.01c-18.28,0-36-5.26-51.24-15.22-1.23-.8-2.66-1.22-4.1-1.22-.65,0-1.3.08-1.94.26l-27.81,7.45,7.45-27.81c.55-2.06.2-4.26-.97-6.04-9.96-15.24-15.22-32.96-15.22-51.24,0-51.74,42.09-93.83,93.83-93.83s93.83,42.09,93.83,93.83-42.09,93.83-93.83,93.83Z" fill="#dc1b1a"/>
</svg>