<?xml version="1.0" encoding="UTF-8"?>
<svg id="Capa_1" xmlns="http://www.w3.org/2000/svg" version="1.1" viewBox="0 0 500 500">
  <!-- Generator: Adobe Illustrator 29.4.0, SVG Export Plug-In . SVG Version: 2.1.0 Build 152)  -->
  <g id="Layer_3">
    <path d="M371.04,52.05c-21.57-11.01-44.68-17.23-68.69-18.41-2.98-.19-6.22-.27-9.84-.27h-.54c-75.19,0-135.85,45.13-154.62,115-4.33,15.61-6.5,31.95-6.5,48.46,0,1.9.18,17.88.27,23.74l-23.73,64.08c-1.17,2.35-1.8,5.05-1.8,7.77,0,9.84,8.13,17.96,18.05,18.05h25.72l-1.08,20.31c-.27,4.41,2.71,8.3,7.04,9.29l20.4,4.43c.81.27,1.08.55,1.17,1.44,0,.73-.09.81-.73,1.26l-20.13,12.46c-3.34,1.99-4.96,5.96-4.06,9.66l6.86,30.33c.63,14.44,12.36,25.81,26.72,25.81,1.81,0,3.52-.18,5.32-.54l33.67-2.71,3.7,36.28c.45,4.7,4.33,8.13,8.93,8.13h.9c4.66-.52,8.07-4.43,8.12-9.01,0-.31.04-.61.01-.92v-.09l-3.76-36.76,40.8-7.57c45.3-10,56.48-40.64,56.93-41.95,1.62-4.66-.82-9.73-5.47-11.41-4.65-1.68-9.81.75-11.54,5.38-.34.92-8.84,22.64-43.51,30.3l-48.64,9.02-42.21,3.36-1.17.18c-.73.18-1.35.26-2.08.26-4.69,0-8.66-4.06-8.66-8.93l-5.87-26.81,14.62-9.03c5.87-3.6,9.39-9.93,9.3-16.6.18-7.86-5.15-16.97-15.34-19.14l-12.91-2.88,1.17-22.12c.09-2.53-.81-4.88-2.53-6.68-1.62-1.81-4.06-2.79-6.49-2.79h-35.2l25.09-67.24.54-3.43c-.1-1.72-.37-23.2-.37-24.92,0-14.89,1.99-29.7,5.78-43.68,17.24-62.64,70.04-101.54,137.83-101.72,3.43,0,6.22.09,8.85.18,21.48,1.08,42.15,6.68,61.46,16.52,4.35,2.22,9.71.41,12.04-3.66.04-.08.1-.13.14-.21,1.08-2.17,1.26-4.6.54-6.96-.72-2.26-2.34-4.15-4.51-5.24h0ZM466.63,215.6c0-8.03-.36-16.16-1.08-24.19-2.8-33.12-15.34-64.71-36.19-91.26-2.98-3.79-8.85-4.51-12.72-1.54-.05.04-.09.1-.14.14-3.74,3.09-4.33,8.67-1.31,12.5,18.69,23.83,29.88,52.08,32.4,81.69.63,7.58.99,15.16.99,22.65,0,31.51-5.96,75.74-34.57,107.78-13.45,14.98-20.85,34.48-20.85,54.88,0,4.79.45,9.56,1.26,14.26l11.2,65.09.26,1.52c.72,4.33,4.42,7.49,8.85,7.49.54,0,1.08,0,1.54-.09,2.44-.46,4.51-1.72,5.87-3.7,1.35-1.99,1.9-4.34,1.53-6.77l-11.46-66.71c-.63-3.61-.99-7.4-.99-11.1,0-15.88,5.78-31.15,16.24-42.88,32.32-36.38,39.18-85.22,39.18-119.79Z" fill="#153259"/>
  </g>
  <path d="M34.69,404.36c-2.59-4.26-1.25-9.81,3.02-12.41l4.18-2.55c18.39-11.22,42.16-11.22,60.56.01l4.18,2.55c6.35,3.88,13.81,5.84,21.41,5.76,4.99-.27,9.08,3.92,9.15,8.9.07,4.99-3.92,9.08-8.91,9.15-.27,0-.54.01-.82.01-10.78,0-21.23-2.91-30.24-8.42l-4.17-2.55c-12.69-7.73-29.07-7.75-41.76,0l-4.19,2.56c-4.25,2.58-9.81,1.24-12.4-3.01Z" fill="#dc1b1a"/>
  <path d="M150.09,432.74l-1.69,1.04c-12.69,7.73-29.08,7.73-41.76.01l-4.19-2.57c-18.4-11.23-42.17-11.21-60.57,0l-4.18,2.56c-4.25,2.6-5.59,8.15-2.99,12.41s8.16,5.6,12.41,3l4.17-2.56c12.69-7.74,29.09-7.73,41.75-.01l4.19,2.56c9.2,5.62,19.73,8.42,30.28,8.42s21.1-2.81,30.3-8.42l1.7-1.04c4.25-2.6,5.59-8.16,2.99-12.41s-8.16-5.6-12.41-2.99Z" fill="#dc1b1a"/>
  <path d="M97.22,365.55c7.11,4.33,15.3,7.11,23.71,8.05.34.04.67.05,1.01.05,4.54,0,8.45-3.42,8.96-8.03.55-4.96-3.03-9.43-7.98-9.97-5.8-.64-11.44-2.55-16.3-5.51-4.26-2.6-9.81-1.26-12.41,3-2.6,4.25-1.25,9.82,3,12.41Z" fill="#dc1b1a"/>
  <path d="M403.8,85.81c.06-.06.13-.11.19-.18,1.62-1.81,2.26-4.15,2.08-6.6-.27-2.43-1.36-4.6-3.25-6.13-3.7-3.07-9.66-2.44-12.72,1.26-.05.06-.08.13-.12.19-3,3.79-2.43,9.44,1.39,12.54,1.63,1.26,3.61,1.98,5.69,1.98,2.62,0,5.05-1.12,6.76-3.07Z" fill="#dc1b1a"/>
</svg>