<?xml version="1.0" encoding="UTF-8"?>
<svg xmlns="http://www.w3.org/2000/svg" version="1.1" viewBox="0 0 500 500">
  <!-- Generator: Adobe Illustrator 29.4.0, SVG Export Plug-In . SVG Version: 2.1.0 Build 152)  -->
  <g id="Capa_1" image-rendering="optimizeQuality" shape-rendering="geometricPrecision" text-rendering="geometricPrecision">
    <g>
      <path d="M488.89,361.98c-3.93-11.86-7.64-23.04-7.64-32.41v-34.78c0-41.41-13.96-72.94-42.66-96.37-26.54-21.67-62.45-33.84-97.3-43.77-2.3-.65-4.73-1.3-6.69-1.82-19.15-5.08-29.99-8.73-30.15-24.76l-.56-61.88c-.04-4.52-3.75-8.21-8.28-8.21h-.06c-4.58.04-8.26,3.79-8.22,8.36l.56,61.89c.13,13.1,4.91,22.8,14.64,29.63,8.24,5.79,18.65,8.55,27.83,10.98l.06.02c2.09.55,4.25,1.13,6.33,1.72,46.74,13.32,75.05,26.3,94.66,43.41,22.71,19.81,33.28,45.48,33.28,80.8v34.78c0,12.05,4.12,24.47,8.48,37.62,6.34,19.13,13.53,40.82,8.56,64.86-.92,4.47,1.96,8.86,6.43,9.79.55.12,1.12.17,1.68.17,3.9,0,7.31-2.78,8.1-6.61,5.87-28.4-2.06-52.32-9.06-73.43Z" fill="#153259"/>
      <path d="M434.04,427.29c-.05-.03-7.73-4.41-15.48-17.24-7.07-11.7-15.61-33.04-16.17-68.23-.06-3.95-3.33-7.17-7.29-7.17h-.05c-3.99.03-7.24,3.3-7.24,7.29v91.8c0,4.02,3.27,7.29,7.29,7.29s7.29-3.27,7.29-7.29v-22.64c10.69,21.27,23.4,28.34,24.89,29.11,1.04.54,2.2.82,3.36.82,2.75,0,5.23-1.5,6.49-3.93,1.85-3.57.46-7.97-3.1-9.81Z" fill="#153259"/>
      <path d="M204.46,57.98h0s-.03,0-.03,0c-4.54,0-8.27,3.68-8.31,8.21l-.56,61.88c-.15,16.04-11,19.69-30.15,24.77-2.07.55-4.42,1.17-6.69,1.82-34.85,9.93-70.76,22.11-97.3,43.77-28.71,23.43-42.66,54.96-42.66,96.37v34.78c0,9.37-3.71,20.55-7.63,32.4-7,21.12-14.93,45.05-9.07,73.44.79,3.83,4.2,6.61,8.1,6.61.56,0,1.13-.06,1.68-.17,2.16-.45,4.03-1.71,5.24-3.56,1.22-1.85,1.64-4.06,1.19-6.23-4.97-24.04,2.22-45.72,8.56-64.85,4.36-13.17,8.48-25.59,8.48-37.64v-34.78c0-35.32,10.58-61,33.28-80.8,19.62-17.11,47.93-30.09,94.66-43.41,2.13-.61,4.3-1.18,6.39-1.73,9.18-2.43,19.59-5.19,27.83-10.99,9.72-6.84,14.51-16.53,14.63-29.63l.56-61.88c.02-2.21-.82-4.3-2.37-5.88-1.55-1.58-3.62-2.46-5.83-2.48Z" fill="#153259"/>
      <path d="M104.96,334.65h0s0,0,0,0h-.05c-3.95,0-7.22,3.22-7.29,7.17-.56,35.17-9.1,56.5-16.15,68.2-7.76,12.86-15.44,17.24-15.52,17.28-3.5,1.85-4.88,6.24-3.05,9.78,1.26,2.43,3.74,3.94,6.48,3.94,1.15,0,2.31-.28,3.34-.82,1.49-.77,14.21-7.85,24.9-29.11v22.64c0,4.02,3.27,7.29,7.29,7.29s7.29-3.27,7.29-7.29v-91.8c0-3.99-3.24-7.26-7.23-7.29Z" fill="#153259"/>
    </g>
    <g id="_222709280" display="none">
      <path id="_458517424" d="M55.8,327.7c-3.48,0-6.3-2.82-6.3-6.3,0-40.78,13.72-71.8,41.93-94.83,26.26-21.44,61.95-33.53,96.59-43.4,3.35-.95,6.83.99,7.78,4.33.95,3.34-.99,6.83-4.33,7.78-81.94,23.35-129.39,51.47-129.39,126.12,0,3.48-2.82,6.3-6.3,6.3h0Z" fill="#153259" fill-rule="evenodd"/>
    </g>
    <g id="_222706832">
      <path id="_458517856" d="M250,381.97c-26.39,0-47.86-21.47-47.86-47.86s21.47-47.86,47.86-47.86,47.86,21.47,47.86,47.86-21.47,47.86-47.86,47.86ZM250,298.83c-19.45,0-35.27,15.82-35.27,35.27s15.82,35.27,35.27,35.27,35.27-15.82,35.27-35.27-15.82-35.27-35.27-35.27Z" fill="#dc1b1a" fill-rule="evenodd"/>
    </g>
    <g>
      <path d="M161.61,334.1c0-21.49,8.37-41.7,23.56-56.89,1.19-1.19,1.84-2.77,1.84-4.46s-.65-3.26-1.84-4.45-2.76-1.83-4.44-1.83-3.27.65-4.46,1.83c-17.57,17.58-27.25,40.95-27.26,65.8,0,24.85,9.68,48.22,27.26,65.8,1.19,1.19,2.77,1.84,4.44,1.84s3.27-.65,4.45-1.84c1.19-1.19,1.84-2.77,1.84-4.45s-.65-3.27-1.84-4.46c-15.19-15.19-23.56-35.4-23.56-56.89Z" fill="#dc1b1a"/>
      <path d="M206.96,290.94c0-1.65-.64-3.21-1.82-4.38-1.18-1.16-2.73-1.81-4.37-1.81s-3.19.64-4.38,1.81c-12.99,12.99-20.14,30.28-20.14,48.7s7.15,35.71,20.14,48.7c1.17,1.17,2.72,1.81,4.38,1.81s3.21-.64,4.38-1.81c1.17-1.17,1.81-2.72,1.81-4.38s-.64-3.2-1.81-4.37c-10.65-10.67-16.52-24.86-16.52-39.95s5.87-29.29,16.53-39.95c1.16-1.18,1.81-2.73,1.81-4.37Z" fill="#dc1b1a"/>
      <path d="M323.74,268.32c-1.18-1.19-2.76-1.85-4.46-1.85s-3.26.65-4.45,1.84c-1.19,1.19-1.84,2.77-1.84,4.45s.65,3.26,1.84,4.45c15.2,15.19,23.57,35.4,23.57,56.89s-8.37,41.7-23.56,56.89c-2.46,2.46-2.46,6.45,0,8.91,1.19,1.19,2.77,1.84,4.45,1.84s3.26-.65,4.44-1.84c17.58-17.58,27.26-40.95,27.25-65.8,0-24.85-9.68-48.22-27.25-65.79Z" fill="#dc1b1a"/>
      <path d="M303.79,284.28c-1.18-1.18-2.76-1.83-4.44-1.83s-3.27.65-4.46,1.83-1.84,2.77-1.84,4.45.65,3.26,1.84,4.45c10.91,10.91,16.92,25.44,16.92,40.91s-6.01,30-16.92,40.92c-2.45,2.45-2.45,6.45,0,8.89,1.18,1.19,2.76,1.85,4.46,1.85s3.26-.65,4.45-1.84c27.47-27.47,27.46-72.17,0-99.64Z" fill="#dc1b1a"/>
    </g>
  </g>
</svg>