<?xml version="1.0" encoding="UTF-8"?>
<svg id="Layer_1" xmlns="http://www.w3.org/2000/svg" version="1.1" viewBox="0 0 500 500">
  <!-- Generator: Adobe Illustrator 29.4.0, SVG Export Plug-In . SVG Version: 2.1.0 Build 152)  -->
  <path d="M278.42,381.67c-6.48-6.7-6.5-11.82-.07-18.24,2.57-2.58,2.57-6.75,0-9.32s-6.75-2.58-9.32,0c-5.77,5.76-8.65,12-8.65,18.28s2.85,12.54,8.57,18.44c2.53,2.62,6.71,2.69,9.32.16,2.62-2.54,2.69-6.71.15-9.32ZM488.02,432.91c-4.05-5.25-10.62-6.06-16.98-6.84-1.29-.16-2.61-.32-3.96-.53-53.05-8.12-127.64-47.98-128.76-94.49l.9-66.09.21-15.9c-4.51-1.8-8.89-3.95-13.09-6.46l-.23,16.93-.97,71.46v.23c.7,32.57,27.94,57.31,50.67,72.33,25.95,17.14,60.16,30.56,89.28,35.02,1.48.22,2.93.4,4.33.57,2.61.32,7.46.92,8.15,1.81,0,.01.48.77.1,3.52-.98,7.17-3.65,12.31-7.91,15.29-5.09,3.55-12.91,4.31-22.63,2.19-7.22-1.57-15.07-2.68-23.51-.14-24.77,7.36-44.64,1.34-63.85-4.48-16.58-5.01-32.23-9.75-48.3-4.34-.12.05-.24.09-.36.14-16.95,6.85-58.34,19.98-76.68-6.02-9.16-12.96-2.52-29.25,4.52-46.5,4.79-11.76,9.32-22.88,8.99-33.56,2-43.15-9.3-65.95-20.23-88-14.7-29.65-28.58-57.65-6.34-138.33.14-.21.26-.43.38-.66,2.34-4.88,4.69-9.75,7.03-14.61l.73-1.5c1.58-3.27.2-7.21-3.08-8.8-3.27-1.58-7.21-.2-8.8,3.08l-.72,1.49c-2.23,4.63-4.47,9.26-6.7,13.91-24.99,11.66-53.44,21.11-85.82,28.43-32.37,7.33-68.67,12.54-109.32,15.72-3.62.29-6.34,3.46-6.05,7.09.29,3.63,3.46,6.34,7.09,6.06,77.34-6.07,139.41-19.39,189.15-40.64-18.53,75.79-3.71,105.67,10.64,134.61,10.68,21.54,20.76,41.89,18.86,81.8-.01.19-.01.39,0,.58.32,7.91-3.73,17.84-8.02,28.35-7.68,18.85-16.39,40.22-3.08,59.08,23.71,33.59,72.22,18.76,92.2,10.72,12.03-3.98,25.03-.04,40.09,4.51,13.36,4.05,27.91,8.45,44.56,8.45,9.11,0,18.16-1.34,26.88-3.96,5.3-1.59,10.41-1.03,16.93.4,13.59,2.96,24.69,1.53,32.98-4.27,7.3-5.09,11.95-13.5,13.43-24.31.77-5.62-.12-9.98-2.71-13.34ZM15.59,34.8h262.87c13.47-.02,26.38,5.39,35.8,15.02,4.42,4.41,7.89,9.58,10.29,15.2,2.04,4.75,3.31,9.82,3.75,15.02,4.01-2.27,8.2-4.24,12.55-5.89-.81-4.99-2.23-9.83-4.22-14.44-3.05-7.08-7.42-13.58-12.98-19.14-11.89-12.15-28.19-18.98-45.19-18.95H15.59c-3.64,0-6.59,2.95-6.59,6.59s2.95,6.59,6.59,6.59Z" fill="#153259"/>
  <g>
    <path d="M374.16,53.04c-13.18,0-25.82,2.36-37.53,6.67-4.15,1.53-8.18,3.3-12.08,5.31-35.13,18.07-59.22,54.7-59.22,96.85,0,20.06,5.47,39.55,15.85,56.57l-9.96,37.19c-.7,2.59.04,5.35,1.94,7.25,1.89,1.89,4.65,2.63,7.24,1.94l37.19-9.97c2.78,1.69,5.62,3.26,8.52,4.68,4.26,2.1,8.64,3.91,13.11,5.43,11.17,3.79,22.95,5.74,34.94,5.74,60.01,0,108.83-48.82,108.83-108.83s-48.82-108.83-108.83-108.83ZM374.16,255.7c-12,0-23.76-2.27-34.73-6.64-4.51-1.8-8.89-3.95-13.09-6.46-1.16-.67-2.29-1.38-3.42-2.12-1.23-.81-2.66-1.22-4.1-1.22-.65,0-1.31.08-1.95.25l-27.8,7.46,7.45-27.81c.55-2.06.2-4.26-.97-6.05-9.96-15.24-15.22-32.96-15.22-51.24,0-35.09,19.36-65.75,47.97-81.83,4.01-2.27,8.2-4.24,12.55-5.89,10.35-3.95,21.58-6.11,33.31-6.11,51.74,0,93.83,42.09,93.83,93.83s-42.09,93.83-93.83,93.83Z" fill="#dc1b1a"/>
    <path d="M365.15,169.29c.56.59,1.15,1.18,1.74,1.76.47,4.63.13,8.14-.62,10.79-1.83,6.41-6.05,7.82-6.83,8.01-.05.01-.1.04-.15.05-3.98.94-6.56,4.84-5.78,8.9.68,3.53,3.68,6.01,7.12,6.2.14,0,.27.04.41.04.47,0,.96-.05,1.45-.13,1.69-.32,3.65-1.01,5.65-2.08,5.74-3.07,11.89-9.5,13.73-20.78,2.58,1.4,5.32,2.71,8.29,3.9.94.37,1.9.55,2.85.55,3.05,0,5.93-1.83,7.13-4.83,1.58-3.94-.34-8.4-4.27-9.98-5.24-2.1-9.64-4.65-13.35-7.46-9.51-7.21-14.4-16.13-16.91-23.5-2.6-7.64-2.65-13.61-2.65-14.24.03-2.08-.78-3.98-2.11-5.38-1.37-1.44-3.29-2.36-5.43-2.4-.85,0-1.65.15-2.42.38-3.09.96-5.32,3.76-5.38,7.16-.02,1.02-.1,15.84,8.8,31.3,2.27,3.94,5.14,7.93,8.73,11.74Z" fill="#dc1b1a"/>
  </g>
</svg>