<?xml version="1.0" encoding="UTF-8"?>
<svg id="Capa_1" xmlns="http://www.w3.org/2000/svg" version="1.1" xmlns:svgjs="http://svgjs.dev/svgjs" viewBox="0 0 500 500">
  <!-- Generator: Adobe Illustrator 29.4.0, SVG Export Plug-In . SVG Version: 2.1.0 Build 152)  -->
  <g>
    <path d="M445.51,196.88c-3.89-2.63-9.17-1.62-11.8,2.27-2.63,3.89-1.62,9.17,2.27,11.8,13.78,9.33,22.01,24.83,22.01,41.45,0,23.14-16.33,43.63-38.84,48.76-.04,0-.08.01-.12.02-3.62.82-7.34,1.24-11.06,1.24-8.77,0-17.42-2.32-25.01-6.7-4.07-2.34-9.26-.95-11.61,3.11-2.35,4.07-.95,9.26,3.11,11.61,10.17,5.87,21.76,8.98,33.51,8.98,1.78,0,3.55-.1,5.32-.24,0,.04,0,.08,0,.12,0,25.19-20.5,45.69-45.69,45.69-14.05,0-27.2-6.44-35.84-17.38.5-2.83.77-5.69.77-8.55,0-16.07-8.01-31.69-21.97-42.84-3.67-2.93-9.02-2.33-11.95,1.34-2.93,3.67-2.33,9.02,1.34,11.95,10.05,8.02,15.58,18.52,15.58,29.55,0,2.8-.37,5.62-1.09,8.37-.01.04-.01.08-.02.11-5.26,19.83-28.15,34.21-54.49,34.21-12.99,0-25.65-3.55-35.64-9.99-2.37-1.53-5.35-1.78-7.95-.67-2.6,1.11-4.47,3.43-5.01,6.21-4.44,23,2.63,47.81,18.02,63.19,6.53,6.53,8.26,13.16,4.86,18.66-3.63,5.88-13.03,10.29-23.3,6.88-38.79-12.86-52.37-54.5-57.02-78.17-.01-.07-.04-.14-.05-.2-.05-.21-.1-.41-.16-.61-.03-.11-.07-.22-.1-.32-.07-.2-.15-.4-.24-.6-.04-.09-.07-.18-.11-.26-.26-.56-.59-1.09-.98-1.59-.05-.07-.11-.13-.16-.19-.14-.17-.29-.34-.45-.51-.07-.08-.15-.15-.23-.22-.15-.14-.3-.27-.46-.4-.09-.08-.19-.15-.28-.23-.15-.12-.31-.22-.48-.33-.11-.07-.21-.14-.32-.21-.02-.01-.04-.03-.06-.04-9.98-5.76-16.18-16.5-16.18-28.02,0-17.84,14.52-32.36,32.36-32.36,2.83,0,5.65.37,8.38,1.1,4.54,1.22,9.2-1.48,10.41-6.01,1.21-4.54-1.48-9.2-6.01-10.41-4.16-1.12-8.46-1.68-12.77-1.68-27.22,0-49.36,22.14-49.36,49.36,0,12.42,4.74,24.23,12.88,33.2-5.19,1.58-10.61,2.4-16.09,2.4-30.35,0-55.05-24.69-55.05-55.05,0-12.06,3.83-23.51,11.08-33.12,0,0,0,0,.01-.01,4.47-5.93,10-10.83,16.44-14.54,4.07-2.35,5.46-7.55,3.11-11.61-2.35-4.07-7.55-5.46-11.61-3.11-6.56,3.79-12.39,8.52-17.42,14.09-16.45-7.24-27.16-23.4-27.16-41.78,0-23.59,17.97-43.06,40.94-45.44,3.11,6.88,7.46,13.2,12.79,18.54,1.66,1.66,3.83,2.49,6.01,2.49s4.35-.83,6.01-2.49c3.32-3.32,3.32-8.7,0-12.02-5.07-5.07-8.92-11.35-11.14-18.17-.01-.04-.03-.07-.04-.11-1.46-4.52-2.2-9.23-2.2-14.03,0-25.19,20.5-45.69,45.69-45.69,9.53,0,18.67,2.9,26.41,8.4,2.1,1.49,4.77,1.95,7.25,1.24,2.48-.71,4.5-2.5,5.51-4.87,9.1-21.57,30.1-35.5,53.51-35.5,16.45,0,32.19,7.03,43.2,19.28,3.14,3.49,8.51,3.78,12,.65,3.49-3.14,3.78-8.51.64-12-14.22-15.84-34.58-24.92-55.85-24.92-26.99,0-51.51,14.34-64.84,37.22-8.6-4.27-18.06-6.5-27.83-6.5-34.57,0-62.69,28.12-62.69,62.69,0,3.12.23,6.22.68,9.28-30.01,4.65-53.06,30.66-53.06,61.95,0,24.04,13.37,45.33,34.18,55.87-5.66,10.45-8.62,22.1-8.62,34.21,0,39.73,32.32,72.05,72.05,72.05,9.01,0,17.9-1.69,26.22-4.93,7.22,27.75,24.58,66.67,65.92,80.38,4.15,1.38,8.4,2.04,12.57,2.04,12.47,0,24.24-5.89,30.55-16.13,5.96-9.66,7.17-25.13-7.31-39.61-8.8-8.79-14-22.37-14.32-36.12,10.09,4.22,21.25,6.41,32.87,6.41,16.45,0,32.55-4.62,45.34-13.01,8.4-5.51,15.17-12.49,19.86-20.34,11.45,10.56,26.55,16.59,42.49,16.59,34.57,0,62.69-28.12,62.69-62.69,0-1.22-.04-2.44-.11-3.66,11.64-4.1,22.07-11.43,29.9-21.1,9.61-11.87,14.9-26.83,14.9-42.13,0-22.26-11.02-43.02-29.47-55.52Z" fill="#153259"/>
    <path d="M159.5,196.04c0,4.69,3.81,8.5,8.5,8.5,16.87,0,30.59,13.72,30.59,30.59,0,4.69,3.81,8.5,8.5,8.5s8.5-3.81,8.5-8.5c0-26.24-21.35-47.59-47.59-47.59-4.69,0-8.5,3.81-8.5,8.5Z" fill="#153259"/>
  </g>
  <g>
    <path d="M374.36,16.8c-60.01,0-108.83,48.82-108.83,108.83,0,20.06,5.47,39.55,15.85,56.57l-9.96,37.19c-.69,2.59.05,5.35,1.94,7.24,1.89,1.9,4.66,2.64,7.24,1.94l37.19-9.96c17.02,10.38,36.51,15.85,56.57,15.85,60.01,0,108.83-48.82,108.83-108.83s-48.82-108.83-108.83-108.83ZM374.36,219.47c-18.28,0-36-5.26-51.24-15.22-1.23-.8-2.66-1.22-4.1-1.22-.65,0-1.3.08-1.94.26l-27.81,7.45,7.45-27.81c.55-2.06.2-4.26-.97-6.04-9.96-15.24-15.22-32.96-15.22-51.24,0-51.74,42.09-93.83,93.83-93.83s93.83,42.09,93.83,93.83-42.09,93.83-93.83,93.83Z" fill="#dc1b1a"/>
    <path d="M403.22,113.51l-23.18,3.31,21.23-35.38c.51-.84.3-1.93-.47-2.53-.78-.61-1.88-.54-2.57.16l-54.44,54.44c-.59.59-.74,1.5-.37,2.24.37.75,1.17,1.17,2.01,1.06l23.17-3.31-21.23,35.38c-.51.84-.31,1.93.47,2.53.77.6,1.88.54,2.57-.16l54.44-54.44c.59-.59.74-1.5.37-2.24-.38-.75-1.18-1.18-2.01-1.06Z" fill="#dc1b1a"/>
  </g>
</svg>