<?xml version="1.0" encoding="UTF-8"?>
<svg id="svg1719" xmlns="http://www.w3.org/2000/svg" version="1.1" xmlns:svg="http://www.w3.org/2000/svg" xmlns:svgjs="http://svgjs.dev/svgjs" viewBox="0 0 500 500">
  <!-- Generator: Adobe Illustrator 29.4.0, SVG Export Plug-In . SVG Version: 2.1.0 Build 152)  -->
  <g id="g1729">
    <g id="g1743">
      <g id="path1745">
        <path d="M249.98,454.74c-15.23,0-30.46-4.08-44.65-12.24l-4.03-2.32c-78.53-45.18-123.57-123.06-123.57-213.67v-4.34c0-94.5,76.88-171.37,171.37-171.37h1.74c94.5,0,171.37,76.88,171.37,171.37v4.34c0,90.6-45.04,168.49-123.57,213.67l-4.03,2.32c-14.19,8.16-29.42,12.25-44.65,12.25ZM249.11,68.78c-84.57,0-153.37,68.8-153.37,153.37v4.34c0,83.99,41.75,156.18,114.55,198.07l4.03,2.32c22.67,13.04,48.67,13.04,71.34,0l4.03-2.32c72.8-41.89,114.55-114.08,114.55-198.07v-4.34c0-84.57-68.8-153.37-153.37-153.37h-1.74Z" fill="#153259"/>
      </g>
    </g>
    <g id="g1747">
      <g id="path1749">
        <path d="M484.75,209.71c-5.13,19.16-26.83,31.56-63.22,36.37-5.7.76-11.77,1.33-18.2,1.71-2.09.12-4.22.23-6.39.31-4.35.16-8.8.24-13.35.24-39.11,0-85.46-6.1-133.6-17.56-6.98-1.66-14.01-3.44-21.06-5.33-5.85-1.57-11.64-3.19-17.38-4.87-40.45-11.85-77.94-26.45-109.34-42.5-5.59-2.86-10.97-5.75-16.15-8.69-4.84-2.75-9.49-5.52-13.95-8.33-1.81-1.14-3.57-2.27-5.3-3.41-5.5-3.62-10.59-7.24-15.25-10.82-28.93-22.3-41.43-43.81-36.31-62.92,3.57-13.33,17.64-30.49,64.34-36.49,33.93-4.36,78.08-2.09,127.65,6.59,1.15.2,2.2.61,3.14,1.19-12.14,2.81-23.79,6.92-34.79,12.18-86.41-11.16-137.7,1.57-142.95,21.19-3.79,14.13,14.55,35.53,49.06,57.25,3.51,2.21,7.14,4.4,10.9,6.57,5.07,2.93,10.36,5.82,15.85,8.67,35.05,18.14,78.37,34.47,125.14,47,5.49,1.47,10.96,2.87,16.41,4.2,12.99,3.18,25.84,5.96,38.45,8.32,39.49,7.39,76.58,10.73,107.8,9.53,2.72-.1,5.39-.24,7.98-.42,6.42-.43,12.44-1.06,18.01-1.89,25.87-3.86,42.22-11.9,45.12-22.74,2.95-11-8.02-27.08-30.1-44.12-1.39-1.08-2.39-2.49-2.95-4.03-1.02-2.8-.63-6.05,1.33-8.59,3.03-3.93,8.68-4.66,12.62-1.63.06.05.12.09.18.14,36.39,28.14,39.83,49.73,36.31,62.88Z" fill="#dc1b1a"/>
      </g>
    </g>
    <g id="g1751">
      <g id="path1753">
        <path d="M448.44,146.83c-4.34,3.34-9.05,6.7-14.13,10.08-2.08,1.38-4.22,2.76-6.42,4.15-4.46,2.81-9.11,5.59-13.95,8.34-5.18,2.93-10.57,5.83-16.15,8.68-31.4,16.06-68.9,30.65-109.34,42.5h-.01c-5.73,1.68-11.53,3.3-17.37,4.87-7.05,1.89-14.08,3.67-21.07,5.33h-.01c-48.12,11.46-94.47,17.56-133.57,17.56-4.56,0-9.01-.08-13.36-.24-2.17-.08-4.3-.19-6.39-.31-6.43-.38-12.5-.95-18.2-1.71-36.39-4.81-58.09-17.21-63.22-36.37-3.55-13.27.01-34.82,36.31-62.88,1.02-.79,2.07-1.59,3.15-2.39,3.99-2.97,9.63-2.15,12.6,1.84,2.6,3.49,2.29,8.25-.5,11.37-.4.44-.84.85-1.34,1.22-23.6,17.58-35.87,34.84-32.83,46.19,2.9,10.84,19.25,18.88,45.12,22.74,5.57.83,11.59,1.46,18.01,1.89,2.59.18,5.26.32,7.98.42,31.22,1.2,68.3-2.14,107.79-9.53h.01c12.61-2.36,25.46-5.14,38.45-8.32,0,0,0,.01.01,0,5.44-1.33,10.91-2.73,16.4-4.2,46.77-12.53,90.09-28.86,125.14-47,5.49-2.85,10.78-5.74,15.85-8.67,3.76-2.17,7.39-4.36,10.9-6.57,34.51-21.72,52.85-43.12,49.06-57.25-3.06-11.43-21.64-20-50.97-23.51-24.97-2.99-56.83-2.14-91.93,2.34-11.48-5.49-23.67-9.73-36.39-12.55,50.48-9.19,95.58-11.84,130.46-7.66,48.14,5.77,62.58,23.15,66.22,36.72,5.12,19.11-7.38,40.62-36.31,62.92Z" fill="#dc1b1a"/>
      </g>
    </g>
  </g>
</svg>