<?xml version="1.0" encoding="UTF-8"?>
<svg id="Capa_1" xmlns="http://www.w3.org/2000/svg" version="1.1" viewBox="0 0 500 500">
  <!-- Generator: Adobe Illustrator 29.4.0, SVG Export Plug-In . SVG Version: 2.1.0 Build 152)  -->
  <polyline points="98.21 195.43 61.34 170.14 74.01 140.62 111.58 149.61" fill="none" stroke="#153259" stroke-linecap="round" stroke-linejoin="round" stroke-width="17"/>
  <polyline points="123.73 134.67 114.87 93.44 139.66 83.13 163.42 112.65" fill="none" stroke="#153259" stroke-linecap="round" stroke-linejoin="round" stroke-width="17"/>
  <path d="M107.53,234.19c-5.95-11.62-9.31-24.8-9.31-38.76,0-42.37,30.95-77.51,71.48-84.04" fill="none" stroke="#153259" stroke-linecap="round" stroke-linejoin="round" stroke-width="17"/>
  <path d="M346.55,170.33c.11-.24.23-.48.35-.71,5.55-11.15,16.73-17.63,28.38-17.71,9.2-.07,17.31-6.05,19.99-14.84h0c2.42-7.92-1.11-16.48-8.46-20.29-.21-.11-.42-.22-.63-.32-37.51-19.03-83.84-4.73-104.13,31.9" fill="none" stroke="#153259" stroke-linecap="round" stroke-linejoin="round" stroke-width="17"/>
  <path d="M286.7,149.03c51.09,0,92.51,41.42,92.51,92.51v-.3,140.27c0,52.74-42.76,95.5-95.5,95.5h0c-103.43,0-187.27-83.85-187.27-187.27h0c0-65.51,44.55-120.61,105-136.66" fill="none" stroke="#153259" stroke-linecap="round" stroke-linejoin="round" stroke-width="17"/>
  <g>
    <path d="M279.81,409.53c-16.35-30.1-16.35-66.43,0-96.53h0c16.35-30.1,16.35-66.43,0-96.53" fill="none" stroke="#153259" stroke-linecap="round" stroke-linejoin="round" stroke-width="17"/>
    <path d="M219.41,314.77c33.27-8.15,60.15-32.59,71.42-64.94" fill="none" stroke="#153259" stroke-linecap="round" stroke-linejoin="round" stroke-width="17"/>
    <path d="M219.52,283.65c13.46,5.54,27.72,8.02,41.83,7.55" fill="none" stroke="#153259" stroke-linecap="round" stroke-linejoin="round" stroke-width="17"/>
    <path d="M326.93,388.64c-26.11-13.47-44.85-37.5-51.79-65.57" fill="none" stroke="#153259" stroke-linecap="round" stroke-linejoin="round" stroke-width="17"/>
    <path d="M334.1,358.37c-14.38,2.24-28.83,1.32-42.44-2.44" fill="none" stroke="#153259" stroke-linecap="round" stroke-linejoin="round" stroke-width="17"/>
  </g>
  <path d="M175.63,161.81c-4.29-11.3-6.64-23.56-6.64-36.37,0-56.58,45.87-102.45,102.45-102.45,7.07,0,13.98.72,20.65,2.08l-5.38,40.57c-23.03,0-41.7,18.67-41.7,41.7s18.67,41.68,41.7,41.68" fill="none" stroke="#153259" stroke-linecap="round" stroke-linejoin="round" stroke-width="17"/>
  <path d="M477,216.03l-26.19,14.43,11.76,11.76-26.19,14.43" fill="none" stroke="#dc1b1a" stroke-linecap="round" stroke-linejoin="round" stroke-width="17"/>
  <path d="M436.39,375.76l26.19,14.43-11.76,11.76,26.19,14.43" fill="none" stroke="#dc1b1a" stroke-linecap="round" stroke-linejoin="round" stroke-width="17"/>
  <path d="M63.61,256.64l-26.19-14.43,11.76-11.76-26.19-14.43" fill="none" stroke="#dc1b1a" stroke-linecap="round" stroke-linejoin="round" stroke-width="17"/>
  <path d="M23,416.37l26.19-14.43-11.76-11.76,26.19-14.43" fill="none" stroke="#dc1b1a" stroke-linecap="round" stroke-linejoin="round" stroke-width="17"/>
</svg>